<?xml version="1.0" encoding="UTF-8" standalone="no"?>
<!-- Created with Inkscape (http://www.inkscape.org/) -->

<svg
   width="297mm"
   height="210mm"
   viewBox="0 0 297 210"
   version="1.1"
   id="svg12"
   sodipodi:docname="fig_01.svg"
   inkscape:version="1.1.1 (3bf5ae0d25, 2021-09-20, custom)"
   xmlns:inkscape="http://www.inkscape.org/namespaces/inkscape"
   xmlns:sodipodi="http://sodipodi.sourceforge.net/DTD/sodipodi-0.dtd"
   xmlns="http://www.w3.org/2000/svg"
   xmlns:svg="http://www.w3.org/2000/svg">
  <sodipodi:namedview
     id="namedview14"
     pagecolor="#ffffff"
     bordercolor="#666666"
     borderopacity="1.0"
     inkscape:pageshadow="2"
     inkscape:pageopacity="0.0"
     inkscape:pagecheckerboard="0"
     inkscape:document-units="mm"
     showgrid="false"
     inkscape:zoom="2.6681047"
     inkscape:cx="561.25984"
     inkscape:cy="397.09837"
     inkscape:window-width="3840"
     inkscape:window-height="2160"
     inkscape:window-x="2160"
     inkscape:window-y="0"
     inkscape:window-maximized="1"
     inkscape:current-layer="layer1"
     inkscape:snap-global="false" />
  <defs
     id="defs9">
    <rect
       x="241.04175"
       y="423.83652"
       width="6.1802431"
       height="26.371497"
       id="rect92008" />
    <rect
       x="136.72349"
       y="297.40238"
       width="65.117642"
       height="20.202598"
       id="rect65482" />
    <rect
       x="892.41853"
       y="333.59792"
       width="51.253433"
       height="88.896045"
       id="rect32470" />
  </defs>
  <g
     inkscape:label="Layer 1"
     inkscape:groupmode="layer"
     id="layer1">
    <circle
       id="path1066"
       style="fill:#000000;stroke:#000000;stroke-width:0.264583"
       cx="-111.97201"
       cy="29.682579"
       r="0.075463481" />
    <circle
       id="path1068"
       style="fill:#000000;stroke:#000000;stroke-width:0.264583"
       cx="-111.97201"
       cy="29.682579"
       r="0.075463481" />
    <path
       id="path1070"
       d="m 31.858018,18.197325 c 0.162066,1.761429 0.349941,3.520168 0.541692,5.278629 0.117862,1.297989 0.268865,2.593614 0.356299,3.894302 0.08115,1.207151 0.122264,2.418324 0.184833,3.626602 0.0994,1.60628 0.06878,3.215947 -0.01154,4.822052 -0.09927,1.243203 -0.214559,2.485014 -0.305618,3.728887 -0.06759,1.497803 -0.224128,2.988889 -0.375713,4.479867 -0.145373,1.319773 -0.198247,2.646706 -0.27944,3.971221 -0.04379,1.047377 -0.171728,2.090671 -0.212127,3.138114 -0.01043,0.269949 -0.08093,0.549312 -0.01146,0.810374 0.06302,0.236768 0.261689,0.41429 0.392536,0.621435 0.06996,0.221665 0.139925,0.44333 0.209886,0.664993 0,0 0.07156,-0.03577 0.07156,-0.03577 v 0 c 0.110971,-0.313343 0.221943,-0.626687 0.332914,-0.94003 0.146786,-0.347072 0.344602,-0.676749 0.440357,-1.041215 0.06998,-0.266366 0.03258,-0.549846 0.04988,-0.824709 0.066,-1.04857 0.149577,-2.095828 0.22162,-3.143972 0.07447,-1.317839 0.129604,-2.637147 0.253897,-3.951626 0.134337,-1.487853 0.302038,-2.973583 0.341794,-4.468283 0.07355,-1.240327 0.196731,-2.476521 0.269851,-3.716692 0.0267,-1.577232 -0.109889,-3.150537 -0.21305,-4.72335 -0.09582,-1.184709 -0.225007,-2.362922 -0.348509,-3.544919 -0.134591,-1.288121 -0.244301,-2.579188 -0.422619,-3.862468 -0.207764,-1.771262 -0.383932,-3.546701 -0.431986,-5.33064 0,0 -1.055084,0.5472 -1.055084,0.5472 z"
       style="stroke-width:0.264583" />
    <path
       id="path1072"
       d="m 35.525781,51.655654 c 0.772546,0.530995 1.683515,0.849564 2.596142,1.0449 0.26476,0.05667 0.533723,0.09154 0.800587,0.137303 0.278751,0.03099 0.556728,0.07005 0.83626,0.09298 0.08984,0.0074 1.952752,0.105992 1.960605,0.106389 1.018011,0.05116 2.036009,0.0913 3.054771,0.123365 1.429229,-0.04148 2.868954,-0.04905 4.290867,-0.219184 0.244594,-0.02926 0.487487,-0.07132 0.731231,-0.106973 1.133634,-0.184968 2.252512,-0.450708 3.388654,-0.619771 0.8841,-0.100849 1.77564,-0.07908 2.663822,-0.100917 0.585841,-0.02897 1.175062,-0.05714 1.753791,-0.158578 0.109873,-0.01529 0.344501,-0.205354 0.426244,-0.03614 0.01791,0.0371 0.01045,0.08173 0.01566,0.122598 0.05438,0.223107 0.200006,0.409519 0.295555,0.61772 0.02677,0.05611 0.160891,0.221729 0.219284,0.215109 0.01754,-0.0021 0.02924,-0.01976 0.04387,-0.02965 0.419057,-0.135308 0.881205,-0.129434 1.318746,-0.160046 1.015765,-0.09343 2.031479,-0.19064 3.047085,-0.287597 1.330002,-0.09984 2.657247,-0.220041 3.974243,-0.433237 0.969965,-0.152299 1.934652,-0.335608 2.904543,-0.488079 1.12378,-0.161415 2.261489,-0.193527 3.395151,-0.210677 0.35569,-0.04132 0.904873,0.07395 1.240687,-0.07951 0.309301,-0.141348 0.588815,-0.34041 0.883224,-0.510614 0,0 0.06488,-0.04681 0.06488,-0.04681 v 0 c 0.1787,-0.174014 0.412536,-0.305369 0.536102,-0.522041 0.03484,-0.06109 -0.130027,-0.05946 -0.199896,-0.06749 -0.07069,-0.0081 -0.841243,0.0097 -0.857713,0.01005 -1.138462,0.02792 -2.279367,0.05506 -3.411455,0.188198 -0.979742,0.150977 -1.95421,0.334576 -2.930769,0.504624 -0.644996,0.112686 -1.290547,0.223245 -1.942229,0.291087 -0.35718,0.03718 -0.990201,0.07481 -1.349812,0.102311 -0.226094,0.01728 -0.451974,0.03731 -0.677963,0.05596 -1.003556,0.08651 -2.007351,0.170437 -3.010058,0.265758 -0.435581,0.0297 -0.871633,0.05112 -1.307598,0.07147 -0.02262,0.0047 -0.0499,-5.29e-4 -0.06783,0.01397 -0.019,0.0154 0.0176,0.132842 0.03891,0.13726 0.03402,0.007 -0.09444,-0.11643 -0.04474,-0.09413 -0.138946,-0.21015 -0.273693,-0.427939 -0.465873,-0.594196 -0.05819,-0.01683 -0.118885,-0.02663 -0.174572,-0.05046 -0.09103,-0.03897 -0.184992,-0.135577 -0.285684,-0.155559 -0.119192,-0.02365 -0.242054,0.132961 -0.352385,0.142193 -0.175192,0.07464 -0.292725,0.13177 -0.4806,0.18057 -0.45711,0.118726 -0.941597,0.09787 -1.408158,0.135644 -0.925277,0.03063 -1.85394,0.05106 -2.773936,0.158771 -1.165273,0.211029 -2.321288,0.47031 -3.484406,0.692854 -0.592895,0.100814 -0.951567,0.173087 -1.556745,0.228417 -0.279673,0.02556 -0.560684,0.03337 -0.841047,0.04967 -0.915091,0.05319 -1.828805,0.125452 -2.744901,0.160118 -0.342853,0.0074 -0.685642,0.02516 -1.028563,0.0222 -0.350578,-0.003 -1.755267,-0.07563 -2.092624,-0.09177 -0.660278,-0.03161 -1.321646,-0.04212 -1.981266,-0.08535 -0.281921,-0.01847 -0.562517,-0.05347 -0.843777,-0.0802 -0.264629,-0.04391 -0.531434,-0.07626 -0.79388,-0.131739 -0.924105,-0.195358 -1.818508,-0.541573 -2.65535,-0.973921 0,0 -0.717077,0.463167 -0.717077,0.463167 z"
       style="stroke-width:0.264583" />
    <path
       id="path1074"
       d="m 75.802201,18.892169 c 0.0039,3.47172 0.112109,6.94163 0.173336,10.412506 0.03067,5.509245 -0.127063,11.019036 -0.316426,16.524661 -0.0019,0.04371 -0.17875,3.389426 -0.101314,3.708797 0.06849,0.282471 0.374248,0.44482 0.561372,0.667231 0,0 0.07182,-0.03525 0.07182,-0.03525 v 0 c 0.290644,-0.464357 0.706863,-0.87072 0.871934,-1.393076 0.109889,-0.347742 0.112186,-3.577715 0.11362,-3.716465 0.06341,-5.460182 0.110244,-10.921333 0.02191,-16.38155 -0.0354,-2.30022 -0.07451,-4.600236 -0.0751,-6.900802 -2.65e-4,-1.083751 -0.003,-1.85659 0.04035,-2.907808 0.0095,-0.229549 0.02986,-0.458516 0.04479,-0.687774 0,0 -1.406295,0.70953 -1.406295,0.70953 z"
       style="stroke-width:0.264583" />
    <path
       id="path1076"
       d="m 32.69293,19.516663 c 0.159385,0.09076 0.312184,0.194218 0.478157,0.272291 1.904363,0.895821 4.040249,1.120773 6.100141,1.39196 3.157588,0.407336 6.316496,0.799505 9.482547,1.134962 2.383592,0.277927 4.780384,0.400999 7.178106,0.462339 2.622884,0.0409 5.246095,0.02602 7.869174,0.03566 2.911274,-0.01543 5.809991,0.239563 8.703903,0.523671 1.191736,0.106029 2.375061,0.29444 3.568486,0.380738 0.298436,0.02617 0.595992,0.0037 0.893561,-0.01943 0.06708,-0.0052 0.136821,0.0028 0.201139,-0.01695 0.127862,-0.03928 0.245869,-0.105422 0.368805,-0.158134 0.247433,-0.155142 0.494866,-0.310284 0.742299,-0.465426 0,0 0.06376,-0.04832 0.06376,-0.04832 v 0 c 0.137943,-0.13267 0.275884,-0.265341 0.413827,-0.398012 -5.29e-4,-0.03591 0.03182,-0.09418 -0.0013,-0.107742 -0.06356,-0.02592 -0.136284,0.0166 -0.204555,0.02376 -0.297063,0.03113 -0.595971,0.05062 -0.894712,0.05045 -1.237364,-0.01573 -2.464993,-0.211373 -3.699923,-0.27516 -2.919428,-0.24954 -5.843923,-0.471627 -8.77562,-0.490119 -2.604956,-0.03021 -5.210149,-0.03305 -7.815001,-0.07136 -2.412172,-0.05451 -4.821256,-0.168865 -7.22254,-0.414611 -3.180466,-0.290516 -6.350915,-0.670673 -9.514866,-1.105469 -2.25919,-0.293785 -4.587465,-0.53695 -6.67684,-1.509342 0,0 -1.258406,0.804248 -1.258406,0.804248 z"
       style="stroke-width:0.264583" />
    <path
       id="path1078"
       d="m 59.278892,24.380229 c 0.07028,1.313769 0.16486,2.626141 0.238594,3.939853 0.0762,1.093144 0.07371,2.187905 0.03287,3.282018 -0.02199,0.999919 -0.04547,1.997038 -0.145367,2.992586 -0.148548,1.124923 -0.362646,2.241166 -0.465143,3.371635 -0.08701,1.237443 -0.0042,2.47845 0.05994,3.714933 0.09133,1.230945 0.126437,2.463985 0.135197,3.697978 -0.0076,1.113443 -0.03804,2.226498 -0.04268,3.339991 0.0099,0.838375 0.0033,1.676848 -0.0092,2.515156 0.03015,0.27513 -0.02969,0.554741 -0.0013,0.829937 0.01146,0.111371 -0.0083,0.253693 0.07625,0.327104 0.155866,0.135359 0.483208,0.06805 0.66435,0.0467 0,0 0.0713,-0.03628 0.0713,-0.03628 v 0 c 0.23845,-0.214334 0.513762,-0.436952 0.667083,-0.724683 0.165777,-0.311103 0.04236,-0.894871 0.08126,-1.236607 -0.0088,-0.829697 -0.01783,-1.659234 -0.04746,-2.488544 -0.02625,-1.103958 -0.0034,-2.207567 -0.01243,-3.311718 -0.0041,-0.379389 -0.0047,-0.828408 -0.02564,-1.208061 -0.04535,-0.820672 -0.146402,-1.638369 -0.18742,-2.459477 -0.09052,-1.221176 -0.207802,-2.448512 -0.09561,-3.672554 0.02352,-0.341948 0.03372,-0.684784 0.06069,-1.026478 0.06073,-0.769411 0.21613,-1.527593 0.308695,-2.293032 0.02365,-0.20514 0.05236,-0.409758 0.07094,-0.615416 0.07177,-0.794493 0.0409,-1.593019 0.07186,-2.389169 0.0061,-1.083307 -0.04231,-2.164601 -0.132334,-3.24432 -0.103055,-1.316548 -0.223109,-2.635566 -0.175577,-3.957746 0,0 -1.198729,0.606194 -1.198729,0.606194 z"
       style="stroke-width:0.264583" />
    <path
       id="path1080"
       d="m 61.554092,30.333659 c 0.28112,0.0086 0.561941,0.02426 0.842962,0.03533 0.190863,0.0075 0.305443,0.02265 0.4854,-0.03672 0.366808,-0.246102 0.762018,-0.454406 1.10042,-0.738304 0.05958,-0.04998 0.03879,-0.150852 0.05099,-0.227656 0.04974,-0.313248 0.04102,-0.635492 0.04594,-0.951542 -0.01839,-0.158337 0.03079,-0.322715 0.0024,-0.479763 0.11357,-0.535798 -1.413565,0.383865 -1.128035,0.710369 0.02994,0.03424 0.07323,0.05396 0.109852,0.08094 0.362077,0.0665 0.733343,-0.0083 1.089062,-0.08095 0.271291,-0.0594 0.542838,-0.117372 0.819052,-0.148217 0.161759,-0.01688 0.324343,-0.02429 0.48618,-0.03979 0.04688,0.0035 0.26184,-0.05513 0.275368,0.01119 -0.01646,0.01349 -0.0584,-1.61e-4 -0.0707,0.0195 -0.05927,0.09479 -0.07742,0.256857 -0.101642,0.358518 -0.119909,0.423765 -0.195284,0.85797 -0.296492,1.286127 -0.04571,0.169566 0.01198,0.353364 0.07303,0.514482 0.02691,0.06291 0.0875,0.150844 0.15721,0.154506 0.140845,-0.0512 0.293388,-7.94e-4 0.435512,0.02146 0.135202,0.02122 0.270875,0.03929 0.406212,0.05962 0.444532,0.05657 0.874236,0.187974 1.314905,0.264613 0.20918,0.0435 0.417579,0.08667 0.628769,0.119277 0.184047,0.01294 0.366363,0.03347 0.54588,0.07682 0.633622,0.09665 0.623261,-0.238723 1.539822,-0.869468 0.06958,-0.04788 0.01506,-0.356285 0.01095,-0.409194 -0.0517,-0.416684 -0.12387,-0.832205 -0.159451,-1.250757 -0.02635,-0.15766 -0.0278,-0.29573 0.04117,-0.439883 0.03018,-0.03824 0.02906,-0.08086 0.04878,-0.124272 0.01638,-0.02924 -0.05689,0.02902 0.0098,-0.01741 -0.367591,0.22805 -0.741158,0.446739 -1.102778,0.684147 -0.03548,0.02331 0.08073,-0.02627 0.121023,-0.03962 0.138907,-0.04595 0.09226,-0.03002 0.226298,-0.07938 0.25485,-0.118324 0.512318,-0.216736 0.788914,-0.268563 0.143639,-0.03226 0.289758,-0.04188 0.43598,-0.05256 0.09662,-0.0081 0.190977,-0.0104 0.286867,0.0056 0.157721,0.0057 0.314415,0.03201 0.471887,0.04738 0.105275,-0.0019 0.208962,0.01741 0.313478,0.0235 0.03801,0.0042 0.0913,0.0053 -0.01844,-0.06799 -5.29e-4,-2.65e-4 -5.29e-4,0.01733 -0.0021,0.124918 -0.02315,0.332951 -0.05349,0.664056 -0.105164,0.993902 -0.0348,0.18216 -0.03008,0.368141 -0.04015,0.552637 0.01474,0.04043 -0.03782,0.186312 0.02649,0.186788 0.02072,0.03452 0.03964,0.08446 0.09064,0.08825 0.03056,0.0024 0.0588,-0.01736 0.08848,-0.02503 0.04105,-0.01058 0.08228,-0.02048 0.123658,-0.02973 0.133133,-0.02978 0.168254,-0.03423 0.308943,-0.05916 0.462124,-0.07524 0.92919,-0.11538 1.39523,-0.157829 0.363212,-0.02627 0.727168,-0.05081 1.091438,-0.04255 0.226584,0.0334 0.453253,0.0385 0.681757,0.0415 0.38803,-0.151032 0.157729,-0.04701 0.671251,-0.352341 0,0 0.06506,-0.04656 0.06506,-0.04656 v 0 c 0.319518,-0.29481 0.277974,-0.14078 0.310157,-0.364498 -0.240654,0.01191 -0.484878,0.03031 -0.724164,-0.0028 -0.379751,-0.0149 -0.75865,0.03093 -1.136949,0.05778 -0.465601,0.04035 -0.929894,0.09109 -1.393981,0.145841 -0.05125,0.0078 -0.484555,0.0686 -0.515525,0.09523 -0.02217,0.01905 0.02133,0.08751 0.02684,0.09823 0.05556,-0.05462 0.01503,-0.139253 0.02938,-0.209931 -0.0016,-0.18084 0.01675,-0.35906 0.03953,-0.538334 0.02912,-0.334214 0.06619,-0.667565 0.09669,-1.001639 0.003,-0.05092 0.03536,-0.272647 -0.07521,-0.247493 -0.120539,0.01945 -0.241183,0.03649 -0.363849,0.03129 -0.143727,-0.0021 -0.276366,-0.03046 -0.410732,-0.0764 -0.09459,-0.01323 -0.187417,-0.04159 -0.283263,-0.03843 -0.153072,0.0011 -0.305188,0.02455 -0.456501,0.04535 -0.240977,0.04213 -0.487738,0.07024 -0.711041,0.175855 -0.593209,0.245202 -1.331577,0.366268 -1.715066,0.926928 -0.03163,0.053 -0.05883,0.106881 -0.08091,0.163399 -0.04783,0.166118 -0.05217,0.343707 -0.02469,0.513717 0.06696,0.411898 0.119941,0.829498 0.138951,1.246034 -0.0013,0.102018 0.01082,0.162343 -0.0285,0.253341 -0.0109,0.02524 -0.06988,0.0815 -0.0455,0.0688 2.140516,-1.115242 1.625806,-0.93577 1.1787,-0.644771 -0.188841,-0.02085 -0.375658,-0.05515 -0.564406,-0.07621 -0.21734,-0.01143 -0.430946,-0.05519 -0.643554,-0.09947 -0.450313,-0.06055 -0.891731,-0.154604 -1.336308,-0.246716 -0.281315,-0.05369 -0.565684,-0.09239 -0.843224,-0.162632 -0.07581,0.05805 0.06141,0.16415 -0.0052,0.02254 -0.04769,-0.145439 -0.07538,-0.286959 -0.0355,-0.439444 0.07143,-0.432784 0.18374,-0.858189 0.305856,-1.27911 0.05147,-0.169008 0.2198,-0.531495 -0.07455,-0.55795 -0.121978,0.04357 -0.251238,0.04613 -0.379563,0.05547 -0.166045,0.0181 -0.332092,0.03532 -0.498742,0.04763 -0.291309,0.03251 -0.577498,0.09337 -0.861687,0.164867 -0.341416,0.07398 -0.683954,0.157245 -1.03649,0.127 -0.01527,0.0091 -0.03055,0.01828 -0.04583,0.02741 7.94e-4,-0.0062 0.0081,-0.02122 0.0024,-0.01868 -0.373657,0.165648 -0.742897,0.341093 -1.114345,0.511638 -0.0028,-0.02342 -0.0029,-0.01976 0.01159,-0.01492 0.0089,0.145878 0.06028,0.287624 0.05083,0.436118 0.0068,0.22464 0.0088,0.450506 -0.01712,0.674315 -0.0095,0.08208 -0.01974,0.164523 -0.04,0.244631 -0.0167,0.06604 -0.13489,0.213635 -0.07034,0.191868 0.324596,-0.109464 0.607398,-0.316931 0.911098,-0.475398 -0.04516,0.03282 -0.08439,0.07594 -0.13547,0.09848 -0.34444,0.151969 -0.911434,0.04391 -1.278284,0.04422 0,0 -0.83761,0.600797 -0.83761,0.600797 z"
       style="stroke-width:0.264583" />
    <path
       id="path1082"
       d="m 36.156373,25.502998 c 0.430607,-0.08001 0.873948,-0.05484 1.287396,0.0959 0.08111,0.02957 0.495361,0.229482 0.575101,0.267529 0.161087,0.07909 0.356942,0.18737 0.535099,0.228247 0.437208,0.100316 0.897284,-0.01356 1.32529,-0.09978 0.541872,-0.08616 1.05401,-0.344972 1.605526,-0.375542 0.0795,-0.0044 0.159208,0.003 0.23881,0.0046 0.415515,0.06895 0.818438,0.168606 1.239634,0.200072 0.329639,-0.0088 0.654772,0.04077 0.98175,0.07131 0.46686,0.0265 0.893775,-0.194022 1.323371,-0.345303 0.146326,-0.102615 0.414642,-0.03497 0.567294,-0.100934 0.149103,-0.06443 0.284069,-0.157596 0.426106,-0.236394 0,0 0.06399,-0.04801 0.06399,-0.04801 v 0 c 0.05723,-0.06569 0.154411,-0.111689 0.171704,-0.197086 0.01476,-0.0729 -0.50006,0.02692 -0.522573,0.03264 -0.427353,0.141868 -0.841608,0.396161 -1.303356,0.375885 -0.327478,-0.021 -0.64856,-0.09854 -0.977226,-0.0801 -0.206938,0.003 -0.409813,0.0025 -0.61387,-0.03896 -0.339484,-0.069 -0.05692,-0.03103 -0.394012,-0.114991 -0.07732,-0.01926 -0.15662,-0.02945 -0.234929,-0.04417 -0.212812,-0.0066 -0.321905,-0.02043 -0.537263,0.0184 -0.463127,0.0835 -0.898417,0.292014 -1.363334,0.370057 -0.637474,0.127201 -1.233279,0.28384 -1.824729,-0.08198 -0.632325,-0.38702 -1.147344,-0.561568 -1.89608,-0.403027 0,0 -0.673701,0.50167 -0.673701,0.50167 z"
       style="stroke-width:0.264583" />
    <path
       id="path1084"
       d="m 39.402551,28.626906 c 0.736852,0.03073 1.454497,-0.176226 2.184398,-0.223528 0.336706,-0.007 0.641736,0.129013 0.956593,0.225232 0.198252,0.06058 0.284935,0.08204 0.484584,0.135654 0.41365,0.109818 0.796465,0.3009 1.220303,0.371343 0.437428,-0.01805 0.869522,-0.07427 1.308963,-0.07312 0.583978,0.0024 1.044247,-0.320839 1.527847,-0.605825 0,0 0.06301,-0.04929 0.06301,-0.04929 v 0 c 0.0042,-0.0318 0.03511,-0.07259 0.01257,-0.09541 -0.0235,-0.02379 -0.068,-0.0026 -0.100065,0.0068 -0.249505,0.07367 -0.482574,0.204052 -0.753256,0.196334 -0.429358,0.01847 -0.859695,-0.0034 -1.285639,0.07303 -0.120833,-0.0099 -0.216035,-0.0104 -0.333008,-0.0512 -0.05941,-0.02072 -0.112998,-0.05541 -0.170307,-0.08137 -0.217773,-0.09865 -0.441039,-0.185208 -0.669459,-0.255992 -0.193503,-0.05015 -0.285062,-0.07022 -0.474448,-0.133856 -0.314378,-0.10564 -0.605179,-0.282305 -0.947571,-0.282077 -0.741561,0.05913 -1.466091,0.308655 -2.219015,0.268176 0,0 -0.80549,0.575083 -0.80549,0.575083 z"
       style="stroke-width:0.264583" />
    <path
       id="path1086"
       d="m 37.025278,34.256493 c 0.07488,-0.05646 0.303824,-0.219663 0.22465,-0.169394 -0.148125,0.09404 -0.346975,0.147383 -0.431848,0.300945 -0.04726,0.08551 0.192154,-0.0406 0.289801,-0.04394 0.270198,-0.0092 0.501097,0.0817 0.741939,0.187767 0.240565,0.0977 0.42984,0.325816 0.697479,0.356759 0.05249,0.0061 0.105669,-0.0011 0.158504,-0.0013 0.230436,-0.0028 0.445275,-0.142968 0.676669,-0.133591 0.165187,0.0067 0.293259,0.06505 0.44709,0.118613 0.201258,0.03901 0.574694,0.410792 0.768662,0.384606 0.09199,-0.01241 0.177282,-0.0551 0.265923,-0.08265 0.139382,-0.09351 0.278765,-0.187018 0.41815,-0.280525 0,0 -0.07452,0.0291 -0.07452,0.0291 v 0 c 0.0227,-0.01672 0.04543,-0.03346 0.06814,-0.05018 0.0053,-0.02434 0.02421,-0.0495 0.01595,-0.07301 -0.04453,-0.127105 -0.619247,-0.327588 -0.733319,-0.416226 -0.123714,-0.05471 -0.316855,-0.152046 -0.455885,-0.166767 -0.241144,-0.02553 -0.473623,0.139036 -0.708261,0.163962 -0.40713,0.04736 -0.498324,-0.126719 -0.829016,-0.323255 -0.949039,-0.445711 -1.43529,-0.173352 -2.317456,0.512229 0,0 0.77733,-0.313037 0.77733,-0.313037 z"
       style="stroke-width:0.264583" />
    <path
       id="path1088"
       d="m 41.766312,33.203454 c -0.07441,0.572553 -0.07424,1.146873 -0.04076,1.721964 0.0457,0.30898 -0.01426,0.282056 0.30689,0.301455 0,0 0.07073,-0.03739 0.07073,-0.03739 v 0 c 0.22193,-0.273333 0.223706,-0.232172 0.197578,-0.561531 -0.03587,-0.573283 -0.05191,-1.150593 0.06277,-1.717225 0,0 -0.597207,0.292722 -0.597207,0.292722 z"
       style="stroke-width:0.264583" />
    <path
       id="path1090"
       d="m 41.743211,34.943333 c 0.08633,0.314499 0.02907,0.748048 0.161761,1.04517 0.198676,0.44487 0.07653,-0.098 0.155112,0.353504 0,0 0.07064,-0.03754 0.07064,-0.03754 v 0 c -0.06721,-0.386408 -0.01503,0.04292 0.01929,-0.445368 0.02511,-0.35713 -0.111228,-0.716307 -0.106606,-1.073193 0,0 -0.300212,0.157428 -0.300212,0.157428 z"
       style="stroke-width:0.264583" />
    <path
       id="path1092"
       d="m 43.907125,54.451675 c -0.287737,1.329883 -0.326311,2.697697 -0.415208,4.050112 -0.04368,0.664443 -0.0857,1.329061 -0.13996,1.992723 -0.06614,0.809048 -0.147486,1.616784 -0.221231,2.425176 -0.0011,0.805143 -0.0024,1.610286 -0.0035,2.415429 0,0 0.07173,-0.03541 0.07173,-0.03541 v 0 c 0.217762,-0.912738 0.435525,-1.825474 0.653285,-2.73821 0.09651,-0.820769 0.209277,-1.639787 0.28952,-2.462305 0.06472,-0.663416 0.08813,-1.330304 0.145272,-1.994416 0.119933,-1.393862 0.256596,-2.806189 0.661062,-4.15158 0,0 -1.040921,0.498483 -1.040921,0.498483 z"
       style="stroke-width:0.264583" />
    <path
       id="path1094"
       d="m 41.744762,64.576449 c -0.171021,-0.233061 -0.310856,-0.490194 -0.48305,-0.722207 -0.04461,-0.0601 -0.100092,-0.111493 -0.145904,-0.170683 -0.03481,-0.04497 -0.0495,-0.174622 -0.09558,-0.141303 -0.274367,0.198369 -0.474345,0.48323 -0.71152,0.724844 0.10001,0.1992 0.194858,0.401077 0.30003,0.597601 0.160956,0.300766 0.332147,0.59594 0.498173,0.893935 0.60675,1.089038 1.213308,2.176473 1.87229,3.234933 0.233365,0.294397 0.334134,0.531196 0.715192,0.637786 0.330372,0.09241 0.618739,-0.03198 0.891596,-0.211957 1.510487,-0.996313 1.150032,-0.668732 1.971093,-1.786634 1.670237,-2.582172 -0.211061,0.526299 0.740174,-1.563901 0.124394,-0.273336 0.322337,-0.506799 0.483505,-0.760199 0,0 -0.07322,0.03223 -0.07322,0.03223 v 0 c -0.161174,0.253381 -0.296911,0.524869 -0.483527,0.760145 -2.50618,3.159725 0.381715,-0.820367 -1.569611,1.919518 -0.206182,0.257418 -0.412361,0.514839 -0.61854,0.77226 0.126267,-0.01262 0.419759,-0.157946 0.378801,-0.03784 -0.05602,0.16428 -0.290862,0.195072 -0.453287,0.256263 -0.59927,0.225753 -0.849929,-0.01908 -1.218589,-0.465315 -1.054486,-1.466773 -1.995254,-3.034393 -2.58301,-4.751057 -0.302366,0.06488 -0.621551,0.07591 -0.9071,0.194646 -0.05238,0.02177 0.06083,0.09597 0.08639,0.146614 0.03337,0.06613 0.05547,0.137657 0.09012,0.20312 0.134829,0.254672 0.306187,0.490998 0.440733,0.746088 0,0 0.874842,-0.508883 0.874842,-0.508883 z"
       style="stroke-width:0.264583" />
    <text
       xml:space="preserve"
       transform="scale(0.26458333)"
       id="text32468"
       style="line-height:1.25;font-family:sans-serif;font-size:16px;letter-spacing:0px;white-space:pre;shape-inside:url(#rect32470);-inkscape-font-specification:'sans-serif, Normal';font-weight:normal;font-style:normal;font-stretch:normal;font-variant:normal;font-variant-ligatures:normal;font-variant-caps:normal;font-variant-numeric:normal;font-variant-east-asian:normal" />
    <text
       xml:space="preserve"
       style="font-size:4.23333px;line-height:1.25;font-family:sans-serif;-inkscape-font-specification:'sans-serif, Normal';letter-spacing:0px;stroke-width:0.264583"
       x="48.166683"
       y="59.679363"
       id="text42354"><tspan
         sodipodi:role="line"
         id="tspan42352"
         style="stroke-width:0.264583"
         x="48.166683"
         y="59.679363">Text change events</tspan></text>
    <path
       id="path49088"
       d="m 44.958735,70.049614 c -1.299231,-0.07694 -2.603569,0.08983 -3.893627,0.232145 -1.302737,0.168061 -2.587598,0.469125 -3.801538,0.978414 -0.968063,0.406135 -1.206389,0.580734 -2.136667,1.110591 -1.775687,1.018916 -3.559291,2.08579 -4.895323,3.667532 -0.190424,0.225446 -0.379429,0.45474 -0.534062,0.706086 -0.157329,0.255725 -0.265062,0.538829 -0.397594,0.808241 -0.578192,1.444234 -0.707338,2.924977 -0.441505,4.456396 0.04556,0.26249 0.120401,0.519049 0.180602,0.778573 0.320886,0.954858 0.839546,1.823572 1.62016,2.473746 0.518168,0.43158 0.885581,0.616365 1.468898,0.962215 1.599554,0.908553 3.34877,1.482088 5.097761,2.022359 1.607881,0.466952 3.247893,0.876062 4.914424,1.07089 0.385977,0.04512 0.774395,0.06604 1.161595,0.09906 1.424813,0.09076 2.856447,0.06102 4.262604,-0.203433 0.318106,-0.05983 0.636304,-0.12406 0.946943,-0.215027 0.326483,-0.09561 0.640652,-0.229121 0.960978,-0.34368 1.394687,-0.597763 2.695072,-1.404483 3.971155,-2.21768 0.256524,-0.163472 0.493088,-0.356481 0.73443,-0.541641 0.629113,-0.482659 0.74131,-0.596842 1.338874,-1.117595 0.746821,-0.718074 1.531138,-1.424289 2.138095,-2.271527 0.375669,-0.524389 0.421063,-0.682059 0.701008,-1.26142 0.467466,-1.179131 0.535147,-2.436886 0.301395,-3.677319 -0.04669,-0.24778 -0.117292,-0.490448 -0.17594,-0.735671 -0.276011,-0.933617 -0.695709,-1.81727 -1.340368,-2.555053 -0.402474,-0.460613 -0.579859,-0.567332 -1.053831,-0.94489 -1.493038,-0.908579 -3.143982,-1.519383 -4.772048,-2.138482 -1.284454,-0.428164 -2.570665,-0.891299 -3.90402,-1.14772 -0.240403,-0.04623 -0.483441,-0.07749 -0.725162,-0.116237 -0.741852,-0.08902 -1.512419,-0.202025 -2.257774,-0.06013 -1.319977,0.367175 -0.68225,0.221006 -1.909718,0.453366 0,0 -0.06505,0.04657 -0.06505,0.04657 v 0 c 0.102262,0.0829 0.212397,0.156935 0.30679,0.248695 0.08922,0.08673 0.127804,0.234331 0.241681,0.284472 0.181131,0.07975 0.391123,0.0627 0.588193,0.08093 0.482589,0.04462 0.969893,0.02775 1.45021,0.104063 0.52709,0.07648 0.970383,0.13448 1.495158,0.23713 1.110271,0.217178 2.194589,0.545047 3.271737,0.886497 1.384308,0.474901 2.800024,0.984464 4.089251,1.684234 0.226412,0.122891 0.441429,0.265706 0.662144,0.398561 0.448972,0.348416 0.654921,0.476308 1.038056,0.902541 0.635283,0.706745 1.059047,1.567442 1.340633,2.468139 0.05659,0.239909 0.124994,0.477338 0.16978,0.71973 0.231397,1.252422 0.153101,2.39217 -0.328353,3.575339 -0.105764,0.210783 -0.199199,0.42822 -0.317296,0.632349 -0.632066,1.092515 -1.591286,1.954413 -2.494526,2.814865 -0.553913,0.476586 -0.747781,0.658481 -1.329248,1.098931 -0.240591,0.182245 -0.590622,0.265168 -0.733338,0.531116 -0.106796,0.199015 0.788498,-0.434557 0.608391,-0.298275 -0.380439,0.287867 -1.333511,0.712502 -1.757315,0.91336 -0.313283,0.11734 -0.620231,0.253228 -0.939848,0.35202 -1.67971,0.519197 -3.47087,0.560935 -5.210939,0.483571 -0.380156,-0.03383 -0.761452,-0.05669 -1.140473,-0.101483 -1.656086,-0.195734 -3.28607,-0.596218 -4.884108,-1.0618 -1.730079,-0.54489 -3.473924,-1.102566 -5.059749,-2.000025 -0.55771,-0.342378 -0.917469,-0.533328 -1.415526,-0.951013 -0.755494,-0.633576 -1.279096,-1.452787 -1.55729,-2.396611 -0.0577,-0.253992 -0.128989,-0.505275 -0.173101,-0.761974 -0.254484,-1.480852 -0.09259,-2.992609 0.50492,-4.37234 0.145757,-0.264284 0.272053,-0.540277 0.437272,-0.79285 0.295812,-0.452208 0.801846,-1.008621 1.186058,-1.375611 0.256554,-0.245055 0.524352,-0.478743 0.800733,-0.701194 0.298889,-0.24057 0.661603,-0.406567 0.923705,-0.686763 0.108529,-0.116025 -0.295881,0.115829 -0.44382,0.173747 0.359884,-0.209656 0.712224,-0.432827 1.079651,-0.628963 1.502378,-0.801976 3.140339,-1.303319 4.826952,-1.522756 1.328923,-0.179853 2.665934,-0.353097 4.009141,-0.355264 0,0 1.259777,-0.902044 1.259777,-0.902044 z"
       style="stroke-width:0.264583" />
    <text
       xml:space="preserve"
       transform="scale(0.26458333)"
       id="text65480"
       style="font-size:16px;line-height:1.25;font-family:sans-serif;-inkscape-font-specification:'sans-serif, Normal';letter-spacing:0px;white-space:pre;shape-inside:url(#rect65482)"><tspan
         x="136.72266"
         y="311.63878"
         id="tspan250673">Parser</tspan></text>
    <text
       xml:space="preserve"
       transform="scale(0.26458333)"
       id="text92006"
       style="font-size:16px;line-height:1.25;font-family:sans-serif;-inkscape-font-specification:'sans-serif, Normal';letter-spacing:0px;white-space:pre;shape-inside:url(#rect92008)"><tspan
         x="241.04102"
         y="464.44543"
         id="tspan250677"><tspan
           dx="0 9.6015625 9.6015625"
           id="tspan250675">ccc</tspan></tspan></text>
    <path
       id="path116459"
       d="m 44.133089,91.63442 c 0.01373,0.840256 -0.0028,1.680183 0.02434,2.520344 0.01095,0.339675 -0.04492,0.69128 0.04698,1.018469 0.09775,0.348048 0.338788,0.638746 0.50818,0.958119 0,0 0.07097,-0.03693 0.07097,-0.03693 v 0 c 0.103039,-0.457708 0.239117,-0.909211 0.309118,-1.373124 0.05326,-0.352951 0.03497,-0.713086 0.0594,-1.069197 0.05996,-0.873749 0.144338,-1.745914 0.17865,-2.621484 0,0 -1.197637,0.603798 -1.197637,0.603798 z"
       style="stroke-width:0.264583" />
    <path
       id="path116461"
       d="m 45.290099,93.045379 c -0.0097,1.356567 -0.0731,2.711797 -0.106257,4.067747 -0.0085,1.305356 -0.03119,2.6129 0.03071,3.917474 0.01667,0.35114 0.03045,0.70304 0.07138,1.05218 0.03638,0.31039 0.106809,0.61583 0.160215,0.92374 0,0 0.07119,-0.0365 0.07119,-0.0365 v 0 c 0.03816,-0.35469 0.08867,-0.70826 0.114464,-1.06406 0.04356,-0.60082 0.05189,-1.642 0.06091,-2.241168 0.0054,-0.35924 0.01035,-0.718486 0.01553,-1.077732 0.0054,-0.304387 0.01151,-0.608761 0.01619,-0.913162 0.0043,-0.280249 0.0072,-0.56052 0.01077,-0.840782 0.0038,-1.349582 -0.03325,-2.701502 0.07368,-4.048572 0,0 -0.518806,0.260815 -0.518806,0.260815 z"
       style="stroke-width:0.264583" />
    <path
       id="path116463"
       d="m 45.503597,99.906221 c 0.01418,0.135249 0.03275,0.270119 0.04253,0.405759 0.05277,0.73184 0.08007,1.46453 0.155583,2.19502 0.02791,0.26996 0.06671,0.53867 0.100068,0.80801 0,0 0.07114,-0.0366 0.07114,-0.0366 v 0 c 0.03134,-0.83027 0.05155,-0.90615 0.01468,-1.72998 -0.03221,-0.7195 -0.05192,-0.67788 -0.128053,-1.34793 -0.01537,-0.1354 -0.02688,-0.27121 -0.04032,-0.406814 0,0 -0.215622,0.112535 -0.215622,0.112535 z"
       style="stroke-width:0.264583" />
    <path
       id="path116465"
       d="m 39.722975,99.963048 c 1.080667,1.411202 2.000041,2.935202 3.012506,4.393862 0.793755,1.14357 0.826434,1.15135 1.653929,2.18901 0.667324,0.72483 1.532596,1.75749 2.616009,1.80919 0.565314,0.027 0.685766,-0.1321 1.178645,-0.39865 0.922779,-0.66496 1.214101,-0.70117 1.746247,-1.5352 0.134615,-0.21098 0.255929,-0.43467 0.33383,-0.6725 0.08913,-0.27211 0.108472,-0.5623 0.162709,-0.84345 0,0 -0.07257,0.0337 -0.07257,0.0337 v 0 c -0.557466,1.02384 -0.443018,0.92353 -1.11489,1.77662 -0.173636,0.22047 -0.401196,0.40097 -0.544031,0.64254 -0.02461,0.0416 0.06997,0.0667 0.104952,0.10005 -0.485619,0.28882 -0.583107,0.4388 -1.152353,0.447 -1.134282,0.0163 -2.019538,-0.92566 -2.735466,-1.67277 -0.791147,-0.93867 -0.968571,-1.10726 -1.695934,-2.15714 -1.010061,-1.45793 -1.874761,-3.00926 -2.803687,-4.518123 0,0 -0.689898,0.405881 -0.689898,0.405881 z"
       style="stroke-width:0.264583" />
    <path
       id="path117105"
       d="m 27.139284,107.57545 c 3.934119,0.23705 7.865462,0.48784 11.795443,0.74207 3.838949,0.2409 7.714664,0.35445 11.587532,0.36254 1.79195,0.004 3.914668,-0.0303 5.707037,-0.0535 6.347889,-0.13998 12.700689,-0.004 19.03946,0.16047 3.716013,0.096 7.416816,0.28311 11.126638,0.417 3.868377,0.13684 7.747836,0.18105 11.625789,0.20167 4.698447,0.0799 9.386027,-0.14949 14.056027,-0.36062 5.97094,-0.29156 11.93284,-0.6194 17.89332,-0.95402 5.82322,-0.33773 11.66649,-0.60612 17.53047,-0.71639 2.44476,-0.0553 4.88904,0.0144 7.3339,0.0102 2.08337,-0.0312 4.15589,-0.13499 6.22884,-0.22989 0.40678,-0.0236 0.81616,-0.0254 1.22411,-0.0412 0.0778,-0.003 0.19792,-0.0382 0.23371,-0.006 0.069,0.0626 0.11729,0.1297 0.17594,0.19454 1.37489,1.71647 2.50409,3.476 3.41881,5.25851 0.26687,0.52003 0.49534,1.04424 0.74301,1.56636 1.37522,3.10393 1.85604,6.26968 2.39778,9.42301 0.2618,1.87093 0.73902,3.73351 1.00536,5.60422 0.18515,1.30039 0.1571,1.28155 0.22817,2.55897 -0.0119,2.19892 0.0117,4.39779 0.0264,6.59675 0.0541,1.8201 0.0483,3.64039 -0.005,5.46045 -2e-4,1.42345 -0.23707,2.84124 -0.5516,4.25584 -0.36561,1.20744 -0.4046,2.42458 -0.44392,3.6413 -0.0476,1.35659 -0.0751,2.71305 -0.0939,4.0698 -0.006,0.5253 0.0113,1.0506 0.007,1.5759 -0.002,0.29078 -0.0531,0.582 -0.0176,0.87231 0.0343,0.27974 0.0159,0.57159 0.22628,0.83391 0.21988,0.27414 0.68746,0.48928 1.03119,0.73393 0,0 0.15598,-0.0359 0.15598,-0.0359 v 0 c 0.56311,-0.45944 1.26183,-0.88786 1.68935,-1.37831 0.26692,-0.30623 0.29198,-0.64847 0.36413,-0.97749 0.064,-0.29172 0.0285,-0.58637 0.043,-0.87954 0.0564,-1.13279 0.0367,-0.54114 0.0588,-1.59251 0.0189,-1.35837 0.0587,-2.71672 0.11998,-4.0748 0.024,-1.2085 0.14472,-2.41507 0.42017,-3.61734 0.29211,-1.4186 0.51855,-2.84222 0.51744,-4.26823 -0.0411,-1.81022 -0.12167,-3.62023 -0.12856,-5.43062 -0.0669,-2.19417 -0.0154,-4.38817 -0.10586,-6.58207 -0.0634,-0.83328 -0.1167,-1.73506 -0.24399,-2.56554 -0.28546,-1.86227 -0.82059,-3.71529 -1.11218,-5.57741 -0.0422,-0.24991 -0.47763,-2.8382 -0.53082,-3.10351 -0.4256,-2.12269 -1.04993,-4.23916 -1.91928,-6.33203 -0.23882,-0.5265 -0.46021,-1.05482 -0.71647,-1.57952 -0.88487,-1.81187 -2.02549,-3.59307 -2.95646,-5.39942 -0.0963,-0.13466 -0.1636,-0.34286 -0.47068,-0.43039 -0.0598,-0.0171 -0.13859,0.009 -0.2078,0.0138 -0.46275,0.032 -0.92163,0.075 -1.38696,0.099 -2.08026,0.12224 -4.16552,0.23896 -6.26334,0.26611 -2.50398,0.008 -5.00967,-0.0509 -7.51118,0.0413 -5.94978,0.15698 -11.87574,0.45948 -17.79129,0.79209 -5.90438,0.32992 -11.81716,0.62195 -17.73295,0.90246 -4.69991,0.22066 -9.41178,0.47062 -14.14342,0.41379 -3.855835,-0.0346 -7.712321,-0.0727 -11.558921,-0.21238 -3.783398,-0.12629 -7.561266,-0.29781 -11.355021,-0.34537 -6.357484,-0.12172 -12.725425,-0.25094 -19.088234,-0.15892 -5.812015,0.10172 -11.645922,0.13348 -17.424406,-0.23493 -0.941956,-0.0608 -1.885126,-0.11775 -2.825863,-0.18259 -2.166389,-0.14934 -2.845367,-0.22332 -4.968292,-0.35298 -2.351377,-0.1436 -1.147603,-0.0528 -3.205555,-0.14268 -0.283033,-0.0124 -0.564232,-0.0327 -0.846344,-0.049 0,0 -2.40551,0.79689 -2.40551,0.79689 z"
       style="stroke-width:0.393306" />
    <path
       id="path117107"
       d="m 27.080144,108.36461 c 0.671147,2.20708 1.136517,4.47303 1.616747,6.72788 0.298807,1.63434 0.556003,3.27916 0.713126,4.93388 0.189574,1.99644 0.268319,4.00301 0.352306,6.00582 0.117559,2.44078 0.08527,4.88471 0.129111,7.32695 0.01982,1.10389 0.05364,1.93915 0.09217,3.03538 0.143796,2.55563 0.241527,5.1121 0.271994,7.67153 0.01326,2.27171 -0.145296,4.53872 -0.229433,6.80764 -0.0182,0.80508 -0.09578,1.61299 -0.05832,2.41902 0.03901,0.83934 0.171003,1.67887 0.277775,2.5113 0.132379,1.15949 0.332272,2.30797 0.540467,3.45547 0.194313,1.10403 0.351867,2.21347 0.546119,3.31751 0.336119,0.61144 0.07599,0.38061 0.866632,0.58093 0,0 0.07073,-0.0374 0.07073,-0.0374 v 0 c 0.600252,-0.92349 0.46659,-0.46124 0.551831,-1.33393 -0.178898,-1.10961 -0.327774,-2.22411 -0.525082,-3.33051 -0.199758,-1.13964 -0.422076,-2.27549 -0.58842,-3.42073 -0.06762,-0.53059 -0.155638,-1.17494 -0.199459,-1.70732 -0.0875,-1.06297 -0.04308,-2.12872 -0.01918,-3.19317 0.0805,-2.25757 0.148839,-4.51627 0.151045,-6.77545 -5.29e-4,-1.27809 -0.01495,-2.55366 -0.0736,-3.83068 -0.05222,-1.13681 -0.08167,-1.28474 -0.154617,-2.44324 -0.02908,-0.46179 -0.05291,-0.9239 -0.07936,-1.38585 -0.0652,-1.24475 -0.09849,-1.74205 -0.134025,-3.00902 -0.06808,-2.42762 -0.0748,-4.85769 -0.228804,-7.28245 -0.2643,-3.63836 -0.383995,-7.31398 -1.22615,-10.87865 -0.536583,-2.25758 -1.025181,-4.52512 -1.502572,-6.79579 0,0 -1.161034,0.63086 -1.161034,0.63086 z"
       style="stroke-width:0.264583" />
    <path
       id="path117109"
       d="m 31.847983,159.75042 c 0.392911,0.006 0.786348,0.006 1.17872,0.0169 0.553032,0.0155 1.103783,0.0456 1.656602,0.0627 3.055567,0.0941 6.115097,0.16764 9.171373,0.25825 5.234128,0.12746 10.478959,0.19727 15.720526,0.20185 5.612684,-0.009 11.2193,-0.10297 16.822427,-0.24755 5.662425,-0.11153 11.303131,-0.36877 16.948313,-0.59081 4.263163,-0.19206 8.538996,-0.29164 12.819896,-0.33892 4.67608,-0.0411 9.35254,0.0209 14.0272,0.0697 5.11438,0.003 10.21062,0.1982 15.30825,0.36186 0.82484,0.0234 1.64959,0.0476 2.47452,0.0702 1.10873,0.0305 3.23506,0.0905 4.38231,0.10056 2.46396,0.0217 4.9316,-0.0365 7.3929,-0.0782 4.20332,-0.0516 8.39861,-0.15563 12.56755,-0.41257 1.90803,-0.1227 3.78826,-0.31753 5.66011,-0.52466 0.4414,-0.0488 0.91014,-0.0615 1.32318,-0.14846 0.93379,-0.19661 1.79031,-0.4637 2.68546,-0.69554 0,0 0.13738,-0.0487 0.13738,-0.0487 v 0 c 0.17492,-0.14566 0.8062,-0.3329 0.52478,-0.43697 -0.35176,-0.13008 -0.87689,0.0956 -1.31453,0.14493 -1.88797,0.21286 -3.77322,0.43611 -5.70019,0.56326 -4.21085,0.27534 -8.44781,0.44279 -12.70175,0.48294 -4.72971,0.0558 -9.4647,0.10158 -14.18514,-0.0911 -5.1079,-0.17018 -10.21814,-0.34278 -15.34193,-0.3612 -4.66104,-0.0553 -9.32277,-0.1277 -13.98617,-0.0947 -4.32383,0.052 -8.64689,0.13259 -12.94611,0.36612 -5.698059,0.27266 -11.401966,0.52728 -17.124854,0.6594 -5.714047,0.14675 -11.429609,0.29293 -17.15034,0.36868 -5.370295,0.0219 -10.743424,0.0422 -16.110896,-0.0611 -3.0584,-0.0715 -6.110895,-0.19878 -9.170224,-0.25934 -0.593414,-0.0117 -1.187935,-0.009 -1.78128,-0.0212 -0.36928,-0.008 -0.737127,-0.0263 -1.105695,-0.0394 0,0 -2.182384,0.72302 -2.182384,0.72302 z"
       style="stroke-width:0.389144" />
    <text
       xml:space="preserve"
       style="font-size:4.23333px;line-height:1.25;font-family:sans-serif;-inkscape-font-specification:'sans-serif, Normal';letter-spacing:0px;white-space:pre;inline-size:138.133;stroke-width:0.264583"
       x="29.147137"
       y="115.9017"
       id="text120215"
       transform="translate(3.6828305,-0.7631851)"><tspan
         x="29.147137"
         y="115.9017"
         id="tspan250681"><tspan
           style="font-size:3.52778px"
           id="tspan250679">Event log:
</tspan></tspan><tspan
         x="29.147137"
         y="121.19337"
         id="tspan250685"><tspan
           style="font-size:3.52778px"
           id="tspan250683">- New Condition: xxxOOmia
</tspan></tspan><tspan
         x="29.147137"
         y="126.48503"
         id="tspan250689"><tspan
           style="font-size:3.52778px"
           id="tspan250687">- Remove condition: xxxOOmia
</tspan></tspan><tspan
         x="29.147137"
         y="131.77669"
         id="tspan250693"><tspan
           style="font-size:3.52778px"
           id="tspan250691">- Change condition: Atherosclerosis -&gt; Congestive heart failure
</tspan></tspan><tspan
         x="29.147137"
         y="137.06834"
         id="tspan250697"><tspan
           style="font-size:3.52778px"
           id="tspan250695">- Change focus: Semantic tab
</tspan></tspan><tspan
         x="29.147137"
         y="142.36"
         id="tspan250701"><tspan
           style="font-size:3.52778px"
           id="tspan250699">- Backend call start (used to set spinner state in UI)
</tspan></tspan><tspan
         x="29.147137"
         y="147.65166"
         id="tspan250705"><tspan
           style="font-size:3.52778px"
           id="tspan250703">- Backend call complete: Interventinons[statins, exercise ...]</tspan></tspan></text>
    <path
       id="path151778"
       d="m 74.742656,32.745439 c 1.122571,0.188052 2.260028,0.244313 3.39503,0.300125 1.218938,0.04832 2.437773,0.09559 3.655983,0.160411 1.651638,0.120693 3.308464,0.106802 4.963303,0.117999 2.432005,0.02847 4.862978,-0.04958 7.294991,-0.0287 1.465426,0.01408 2.926805,0.158856 4.39185,0.180705 0.948391,0.01413 1.280105,-0.01585 2.249667,-0.05895 1.00371,-0.0745 2.01418,-0.0863 3.01597,-0.188992 0.24939,-0.02556 0.50273,-0.03828 0.74511,-0.102341 0.30845,-0.08151 0.59849,-0.221213 0.89774,-0.331819 0,0 0.0643,-0.04758 0.0643,-0.04758 v 0 c -0.0401,-0.08094 -0.0342,-0.215908 -0.1204,-0.24283 -0.15194,-0.04743 -1.49127,0.08465 -1.49588,0.08503 -1.30315,0.107283 -0.8279,0.07048 -2.19075,0.157461 -0.8716,0.02941 -1.35851,0.05598 -2.219299,0.04713 -1.475962,-0.01516 -2.948583,-0.150794 -4.424865,-0.159877 -1.233035,-0.01757 -1.265333,-0.02577 -2.503795,-0.01215 -1.581766,0.01741 -3.163998,0.06515 -4.745712,0.008 -1.641927,-0.02955 -3.285778,-0.0033 -4.924094,-0.141179 -1.244751,-0.05052 -2.491161,-0.04563 -3.735829,-0.10291 -1.125951,-0.05108 -2.25669,-0.09604 -3.367413,-0.30281 0,0 -0.945917,0.663265 -0.945917,0.663265 z"
       style="stroke-width:0.264583" />
    <path
       id="path151780"
       d="m 104.33925,35.672299 c -0.003,0.392129 -0.0134,1.709804 -0.0117,1.924455 0.005,0.661876 0.0648,3.312859 0.074,3.805862 0.10765,5.823511 -0.0381,-1.274313 0.0934,4.954325 -0.0102,0.972476 -0.0186,1.944971 -0.0305,2.917429 -0.0332,2.712852 -0.0204,3.401319 -0.1873,6.143066 -0.0626,1.02788 -0.153,2.053879 -0.23359,3.080499 -0.9548,12.162411 0.43574,-5.808692 -0.48296,6.098974 -0.22031,2.927905 -0.33839,5.861478 -0.46745,8.79426 -0.10867,2.469409 -0.22991,4.938308 -0.34709,7.407323 -0.13678,2.531308 -0.19652,5.066564 -0.39376,7.594433 -0.0662,0.849098 -0.20519,2.269067 -0.28787,3.135506 -0.13578,1.453927 -0.22794,2.911295 -0.32968,4.367823 -0.0564,0.80753 -0.14039,1.613556 -0.17062,2.422488 -0.0105,0.280117 0.002,0.560623 0.003,0.840936 -0.0226,0.59118 -0.0375,0.699995 -0.0206,1.269772 0.007,0.22091 -0.0682,0.46514 0.0317,0.66226 0.66406,1.30986 0.54084,-0.50117 0.50521,1.0519 0,0 0.0714,-0.0361 0.0714,-0.0361 v 0 c 0.035,-1.55499 -0.0996,0.52058 0.46845,-1.55335 0.0582,-0.21239 -0.0217,-0.44014 -0.0198,-0.660348 0.003,-0.384985 0.0588,-0.92438 0.0915,-1.299488 0.0392,-0.300612 0.09,-0.599938 0.11761,-0.901835 0.0733,-0.801304 0.0929,-1.606629 0.14633,-2.409497 0.0969,-1.455796 0.20745,-2.910811 0.32944,-4.364701 0.29514,-3.548857 0.48429,-7.106516 0.54272,-10.667511 0.16411,-5.375166 0.30697,-10.75277 0.66059,-16.119673 0.14935,-2.029394 0.31187,-4.057811 0.45895,-6.087372 0.29076,-4.011964 0.56643,-8.04051 0.27668,-12.061965 -0.0611,-3.347672 -0.17004,-6.704288 5.2e-4,-10.050772 0.0125,-0.244999 0.0373,-0.489212 0.056,-0.733817 0,0 -0.94513,0.475168 -0.94513,0.475168 z"
       style="stroke-width:0.264583" />
    <path
       id="path151782"
       d="m 95.841525,96.96855 c 1.255027,1.857486 2.27574,3.86515 3.586697,5.68633 0.228306,0.31717 0.481401,0.61572 0.722098,0.92358 0.53126,0.49784 1.16588,1.41164 2.0371,1.275 0.24362,-0.0382 0.48216,-0.15271 0.67128,-0.31098 1.94464,-1.62739 1.56421,-1.28342 2.38613,-3.26298 0.0447,-0.61969 0.0894,-1.23939 0.13405,-1.859081 0,0 -0.0722,0.03439 -0.0722,0.03439 v 0 c -0.33397,0.751541 -0.66793,1.503081 -1.0019,2.254621 -0.25716,0.53086 -0.51432,1.06171 -0.77149,1.59256 0.10296,0.15035 0.37722,0.28213 0.30888,0.45106 -0.093,0.22991 -0.40433,0.30667 -0.64288,0.37455 -0.92981,0.26459 -1.61595,-0.49106 -2.2296,-1.03961 -0.66411,-0.78878 -0.974065,-1.11149 -1.554119,-2.00488 -0.270772,-0.41704 -0.505029,-0.85669 -0.75542,-1.286274 -0.648285,-1.112256 -1.292096,-2.228499 -1.82158,-3.403918 0,0 -0.997016,0.575636 -0.997016,0.575636 z"
       style="stroke-width:0.264583" />
    <text
       xml:space="preserve"
       style="font-size:4.23333px;line-height:1.25;font-family:sans-serif;-inkscape-font-specification:'sans-serif, Normal';letter-spacing:0px;stroke-width:0.264583"
       x="112.89792"
       y="57.834465"
       id="text158546"><tspan
         sodipodi:role="line"
         id="tspan158544"
         style="stroke-width:0.264583"
         x="112.89792"
         y="57.834465">Tab select/</tspan><tspan
         sodipodi:role="line"
         style="stroke-width:0.264583"
         x="112.89792"
         y="63.126129"
         id="tspan158804">user action events</tspan><tspan
         sodipodi:role="line"
         style="stroke-width:0.264583"
         x="112.89792"
         y="68.417786"
         id="tspan158550">e.g. Contact experts</tspan></text>
    <path
       id="path179921"
       d="m 76.661321,28.793469 c 0.939898,-0.80432 1.862974,-1.630249 2.832756,-2.399051 1.02235,-0.810477 1.472314,-1.115035 2.556185,-1.896864 1.845728,-1.373268 1.010153,-0.652532 2.529766,-2.13521 0,0 -0.07415,0.03003 -0.07415,0.03003 v 0 c -2.156007,1.668148 -1.107215,0.877819 -3.14213,2.376621 -0.464752,0.33352 -0.933861,0.66105 -1.394254,1.000559 -0.894535,0.659656 -1.429501,1.085643 -2.275956,1.782566 -0.33283,0.274032 -1.103739,0.921388 -1.459426,1.251853 -0.101254,0.09408 -0.1924,0.198472 -0.2886,0.297706 0,0 0.715809,-0.30821 0.715809,-0.30821 z"
       style="stroke-width:0.264583" />
    <path
       id="path179923"
       d="m 78.955015,25.301887 c -1.072761,1.069302 -1.931133,2.321552 -2.776357,3.571256 -0.276582,0.409638 -0.531265,0.833329 -0.788591,1.255122 -0.04721,0.07738 -0.211799,0.270497 -0.129392,0.399291 0.0446,0.0697 0.135885,0.09447 0.203827,0.141703 0.113877,0.01389 0.227047,0.04739 0.341628,0.04169 0.367524,-0.01828 0.968605,-0.17993 1.299715,-0.263414 0.863436,-0.217705 1.724761,-0.443632 2.588707,-0.659548 1.230241,-0.340987 0.574786,-0.116758 1.950456,-0.717516 0,0 0.06347,-0.04869 0.06347,-0.04869 v 0 c -0.646541,-0.166105 -0.240765,-0.12673 -1.213329,0.153829 -2.579965,0.65359 0.760145,-0.189367 -1.780487,0.441648 -0.65536,0.162772 -1.327102,0.389051 -2.004047,0.447863 -0.102052,0.0089 -0.204718,-0.0079 -0.307078,-0.01188 -0.04697,-0.0122 -0.108143,-7.94e-4 -0.140898,-0.03657 -0.05636,-0.0616 0.05973,-0.233508 0.111331,-0.323643 0.244819,-0.427641 0.531974,-0.828742 0.787358,-1.2499 0.838187,-1.27935 1.727261,-2.548715 2.876648,-3.571391 0,0 -1.082964,0.430152 -1.082964,0.430152 z"
       style="stroke-width:0.264583" />
    <path
       id="path179925"
       d="m 29.011303,31.010082 c 0.148727,0.04956 0.293933,0.111302 0.44618,0.148682 0.869945,0.213604 1.769782,0.2558 2.660414,0.292222 0.522669,0.02138 1.853219,0.05426 2.344719,0.06717 1.790991,0.02837 0.850146,0.06575 2.820914,-0.147497 0,0 0.06473,-0.04701 0.06473,-0.04701 v 0 c -1.480129,-0.238249 -0.713539,-0.157376 -2.301364,-0.227055 -0.769721,-0.03079 -1.539838,-0.05252 -2.309233,-0.09061 -0.856607,-0.0424 -1.736191,-0.0836 -2.565032,-0.328904 -0.13837,-0.04095 -0.266618,-0.110484 -0.399926,-0.165729 0,0 -0.761402,0.498721 -0.761402,0.498721 z"
       style="stroke-width:0.264583" />
    <path
       id="path179927"
       d="m 33.674624,29.119896 c 0.917501,0.410223 1.791181,0.908759 2.701149,1.333846 0.498766,0.272738 1.135722,0.413129 1.585566,0.769684 0.218798,0.227579 0.106778,0.129759 0.330661,0.299535 0.02767,0.03429 0.08114,0.05886 0.083,0.10288 0.003,0.07147 -0.229053,0.312537 -0.265372,0.348819 -0.16161,0.161446 -0.330285,0.315672 -0.496917,0.471927 -0.872286,0.817959 -0.496879,0.373668 -1.082386,1.178462 -0.229299,0.20566 -0.458597,0.411324 -0.687896,0.616987 0,0 0.07411,-0.03012 0.07411,-0.03012 v 0 c 0.252142,-0.214982 0.504285,-0.429966 0.756425,-0.644948 1.186505,-0.861039 1.004933,-0.668488 1.93575,-1.530742 0.08749,-0.08105 0.60583,-0.521816 0.684731,-0.766754 0.01939,-0.06019 -2.57e-4,-0.131551 -0.03008,-0.187314 -0.0272,-0.05085 -0.08714,-0.07554 -0.130706,-0.113316 -0.500756,-0.154602 0.07082,0.0109 -0.589936,-0.133628 -0.614061,-0.134326 -1.182995,-0.403101 -1.75573,-0.653621 -0.901121,-0.420566 -1.785808,-0.87575 -2.652721,-1.363126 0,0 -0.459647,0.301427 -0.459647,0.301427 z"
       style="stroke-width:0.264583" />
    <text
       xml:space="preserve"
       style="font-size:4.23333px;line-height:1.25;font-family:sans-serif;-inkscape-font-specification:'sans-serif, Normal';letter-spacing:0px;stroke-width:0.264583"
       x="11.445794"
       y="29.735806"
       id="text188973"><tspan
         sodipodi:role="line"
         id="tspan188971"
         style="stroke-width:0.264583"
         x="11.445794"
         y="29.735806">Note </tspan><tspan
         sodipodi:role="line"
         style="stroke-width:0.264583"
         x="11.445794"
         y="35.027466"
         id="tspan188975">Editor</tspan></text>
    <text
       xml:space="preserve"
       style="font-size:4.23333px;line-height:1.25;font-family:sans-serif;-inkscape-font-specification:'sans-serif, Normal';letter-spacing:0px;stroke-width:0.264583"
       x="86.133278"
       y="20.005518"
       id="text194085"><tspan
         sodipodi:role="line"
         id="tspan194083"
         style="stroke-width:0.264583"
         x="86.133278"
         y="20.005518">Semantics Tab</tspan></text>
    <path
       id="path198224"
       d="m 179.56843,71.451043 c -0.0235,0.192519 -0.0586,0.383977 -0.0705,0.577556 -0.0468,0.757484 -0.052,2.249697 -0.0589,2.918606 -0.008,0.822859 -0.0152,1.645732 -0.0236,2.468589 -0.0107,1.044617 -0.0784,2.090121 -0.0336,3.133831 0.0468,1.089951 0.2052,2.172234 0.30779,3.258354 0,0 0.0714,-0.03604 0.0714,-0.03604 v 0 c 0.19192,-1.234464 0.42677,-2.463014 0.57577,-3.703392 0.0523,-0.435112 0.39569,-5.042093 0.4465,-5.800423 0.0445,-0.664829 0.10669,-2.208109 0.2058,-2.967188 0.0244,-0.186817 0.0841,-0.367292 0.12621,-0.550939 0,0 -1.54689,0.70105 -1.54689,0.70105 z"
       style="stroke-width:0.264583" />
    <path
       id="path198226"
       d="m 178.81866,86.93565 c 1.17309,-0.0079 0.9436,0.01193 2.45046,-0.123645 3.70328,-0.333208 0.78396,-0.146002 5.3743,-0.566354 3.81939,-0.349758 4.72567,-0.356605 8.6858,-0.565277 5.93767,-0.318389 3.02302,-0.106494 8.74476,-0.624625 0,0 0.0645,-0.04736 0.0645,-0.04736 v 0 c -5.20638,0.04629 -2.49444,-0.0078 -8.13549,0.17802 -3.98212,0.134032 -4.60592,0.121565 -8.43058,0.371118 -10.10124,0.659093 2.39315,-0.112909 -5.17704,0.425926 -1.35229,0.09625 -1.25443,0.07909 -2.3271,0.04596 0,0 -1.24958,0.90624 -1.24958,0.90624 z"
       style="stroke-width:0.264583" />
    <path
       id="path198228"
       d="m 181.92976,69.960854 c 1.24393,-0.540446 2.58569,-0.802367 3.90836,-1.065104 0.939,-0.186523 1.87952,-0.366061 2.82282,-0.52942 4.17689,-0.723342 3.37598,-0.558475 7.88943,-1.033571 10.82392,-0.674291 -2.04802,0.09487 8.99929,-0.459767 17.72333,-0.889807 -7.28981,0.261538 8.4973,-0.452649 0,0 0.0646,-0.0472 0.0646,-0.0472 v 0 c -1.25373,0.01257 -2.5074,0.0329 -3.76119,0.03771 -1.38655,0.0053 -2.77334,-0.03222 -4.15968,-0.0073 -3.19328,0.05733 -5.76155,0.232567 -8.94313,0.412351 -4.45509,0.3927 -3.54976,0.244525 -7.6479,0.843568 -0.89743,0.131183 -1.79313,0.27432 -2.68773,0.423601 -1.09651,0.182975 -2.01313,0.32965 -3.05927,0.640749 -0.23935,0.07118 -0.46762,0.175342 -0.70143,0.263015 0,0 -1.22146,0.97405 -1.22146,0.97405 z"
       style="stroke-width:0.264583" />
    <path
       id="path198230"
       d="m 216.85489,65.768002 c 0.0353,0.357682 0.0629,0.716203 0.10583,1.07305 0.0798,0.663358 0.18129,1.323969 0.26227,1.987185 0.39547,3.238949 0.71062,6.486657 1.0248,9.734203 0,0 0.0711,-0.03658 0.0711,-0.03658 v 0 c 0.0263,-1.259763 0.0773,-2.519254 0.0789,-3.779293 0.002,-1.22121 -0.0204,-2.442755 -0.0696,-3.662973 -0.0368,-0.912392 -0.13259,-1.821487 -0.18867,-2.7329 -0.0647,-1.051777 -0.10184,-2.105112 -0.16492,-3.156995 0,0 -1.11974,0.574299 -1.11974,0.574299 z"
       style="stroke-width:0.264583" />
    <path
       id="path198232"
       d="m 201.83066,86.315607 c 1.17502,-0.189968 2.31935,-0.566883 3.49579,-0.743897 0.75475,-0.113565 1.51593,-0.187486 2.27776,-0.234072 0.88475,-0.0541 1.77452,-1.3e-5 2.65832,-0.06777 1.0174,-0.07801 2.02588,-0.24602 3.03881,-0.369031 0,0 0.0646,-0.04723 0.0646,-0.04723 v 0 c -0.75399,-0.06531 -1.506,-0.16002 -2.26196,-0.195945 -1.57825,-0.075 -3.1749,-0.06562 -4.74569,0.132024 -0.95996,0.120791 -1.93554,0.404683 -2.87988,0.617347 -0.19983,0.045 -0.40207,0.07858 -0.60311,0.117867 0,0 -1.04461,0.790715 -1.04461,0.790715 z"
       style="stroke-width:0.264583" />
    <path
       id="path198234"
       d="m 217.77674,77.314556 c 0.46938,1.465006 0.41551,3.038846 0.65183,4.54364 0.11263,0.717118 0.29724,1.421066 0.44585,2.131602 0,0 0.0711,-0.03671 0.0711,-0.03671 v 0 c 0.0652,-0.821286 0.17267,-1.640306 0.19548,-2.463859 0.021,-0.756951 -0.035,-1.514141 -0.0643,-2.270812 -0.0484,-1.24758 -0.0733,-1.494677 -0.15125,-2.522535 0,0 -1.14866,0.618672 -1.14866,0.618672 z"
       style="stroke-width:0.264583" />
    <path
       id="path198236"
       d="m 212.26551,85.498442 c 1.68953,-0.191781 -0.0864,0.01294 2.13895,-0.257358 0.51284,-0.06229 1.02808,-0.10632 1.53901,-0.1827 0.60869,-0.091 1.21467,-0.200486 1.81856,-0.319233 0.59701,-0.117396 1.18891,-0.259366 1.78337,-0.389046 0,0 0.0641,-0.04783 0.0641,-0.04783 v 0 c -0.27484,-0.0021 -2.42466,-0.02186 -2.63134,-0.01236 -1.16039,0.05341 -2.31159,0.262072 -3.47374,0.297574 0,0 -1.23894,0.910939 -1.23894,0.910939 z"
       style="stroke-width:0.264583" />
    <text
       xml:space="preserve"
       style="font-size:4.23333px;line-height:1.25;font-family:sans-serif;-inkscape-font-specification:'sans-serif, Normal';letter-spacing:0px;stroke-width:0.264583"
       x="186.01865"
       y="76.131432"
       id="text204754"><tspan
         sodipodi:role="line"
         id="tspan204752"
         style="stroke-width:0.264583"
         x="186.01865"
         y="76.131432">Backend </tspan><tspan
         sodipodi:role="line"
         style="stroke-width:0.264583"
         x="186.01865"
         y="81.423096"
         id="tspan204976">Manager</tspan></text>
    <path
       id="path209323"
       d="m 163.73047,107.88257 c 0.0889,-0.0683 0.18443,-0.12886 0.26682,-0.20494 0.50861,-0.46964 0.92147,-1.04611 1.32102,-1.60684 0.37511,-0.52641 0.73662,-1.06238 1.10716,-1.59202 1.12613,-1.54753 2.26105,-3.09153 3.44547,-4.595166 0.79139,-1.006469 1.69551,-1.918665 2.50067,-2.913806 0.17567,-0.217114 0.34113,-0.44229 0.51169,-0.663437 0.50194,-0.701074 0.98452,-1.415862 1.4393,-2.14848 0.14484,-0.233328 0.30437,-0.458952 0.42623,-0.705064 0.0888,-0.179332 0.1351,-0.376727 0.20266,-0.56509 0,0 -0.0733,0.03212 -0.0733,0.03212 v 0 c -0.22614,0.258595 -0.47202,0.501181 -0.67842,0.775787 -0.16705,0.222231 -0.29255,0.472834 -0.43813,0.709679 -0.43842,0.713261 -0.86277,1.437076 -1.36327,2.109782 -0.15967,0.215484 -0.31308,0.435758 -0.47901,0.646456 -0.80203,1.018376 -1.71089,1.950879 -2.55107,2.936809 -1.24897,1.54005 -2.52808,3.06012 -3.6584,4.69153 -0.15898,0.22669 -0.95626,1.36598 -1.12502,1.5971 -0.40232,0.55099 -0.82474,1.10933 -1.3189,1.5835 -0.0724,0.0694 -0.15579,0.12637 -0.23368,0.18956 0,0 0.69815,-0.27748 0.69815,-0.27748 z"
       style="stroke-width:0.264583" />
    <path
       id="path209325"
       d="m 167.61438,96.858628 c 0.9275,-1.002752 1.86936,-2.003186 2.95163,-2.843225 0.2668,-0.207082 0.55037,-0.391592 0.82556,-0.587389 0.26751,-0.154212 0.53501,-0.308424 0.80251,-0.462637 0.0117,0.01942 0.0133,0.06458 0.035,0.05828 0.21784,-0.06294 0.41669,-0.180647 0.63223,-0.251089 0.20288,-0.06631 0.66048,-0.172829 0.89178,-0.118825 0.12152,0.02837 0.21828,0.121008 0.32741,0.181513 0.0975,0.155784 0.21787,0.299405 0.29248,0.467354 0.30194,0.679707 0.33921,1.209831 0.35654,1.981822 0.0117,0.521772 -0.0681,1.043464 -0.0479,1.564973 0.0182,0.470803 0.10858,0.936033 0.16286,1.404051 0,0 0.0717,-0.03552 0.0717,-0.03552 v 0 c 0.17166,-0.581543 0.39782,-1.149704 0.51498,-1.744625 0.10534,-0.534903 0.12839,-1.083924 0.14936,-1.628701 0.0313,-0.813464 0.0337,-1.364713 -0.25774,-2.092581 -0.0757,-0.189051 -0.20408,-0.352476 -0.30611,-0.528712 -0.13039,-0.06838 -0.24793,-0.171074 -0.39117,-0.205131 -0.35533,-0.08449 -0.73884,0.07969 -1.05434,0.195852 -1.02411,0.377066 -1.96923,0.93463 -2.89911,1.498952 -0.25256,0.188645 -0.51126,0.369342 -0.75768,0.565936 -1.11194,0.887087 -2.11258,1.89874 -3.10305,2.916277 0,0 0.80304,-0.336577 0.80304,-0.336577 z"
       style="stroke-width:0.264583" />
    <text
       xml:space="preserve"
       style="font-size:4.23333px;line-height:1.25;font-family:sans-serif;-inkscape-font-specification:'sans-serif, Normal';letter-spacing:0px;stroke-width:0.264583"
       x="179.66179"
       y="103.34509"
       id="text214799"><tspan
         sodipodi:role="line"
         id="tspan214797"
         style="stroke-width:0.264583"
         x="179.66179"
         y="103.34509">Backend manager reads log</tspan><tspan
         sodipodi:role="line"
         style="stroke-width:0.264583"
         x="179.66179"
         y="108.63676"
         id="tspan216669">and pulls semantic info from</tspan><tspan
         sodipodi:role="line"
         style="stroke-width:0.264583"
         x="179.66179"
         y="113.92842"
         id="tspan216671">the backend as needed. </tspan><tspan
         sodipodi:role="line"
         style="stroke-width:0.264583"
         x="179.66179"
         y="119.22008"
         id="tspan216673">Backend manager is responsible</tspan><tspan
         sodipodi:role="line"
         style="stroke-width:0.264583"
         x="179.66179"
         y="124.51174"
         id="tspan216675">for appropriate chunking of </tspan><tspan
         sodipodi:role="line"
         style="stroke-width:0.264583"
         x="179.66179"
         y="129.80341"
         id="tspan216677">api calls and updating the</tspan><tspan
         sodipodi:role="line"
         style="stroke-width:0.264583"
         x="179.66179"
         y="135.09506"
         id="tspan216679">semantics tab through the event</tspan><tspan
         sodipodi:role="line"
         style="stroke-width:0.264583"
         x="179.66179"
         y="140.38673"
         id="tspan216681">log.</tspan></text>
    <path
       id="path222850"
       d="m 213.66993,84.923862 c -0.34825,0.707601 -0.58526,1.468652 -0.62591,2.26015 -0.0121,0.236074 -0.0207,0.474631 0.009,0.709096 0.0332,0.258985 0.11962,0.508331 0.17943,0.762498 0.30423,0.861385 0.76268,1.672047 1.49918,2.242915 0.97031,0.752089 2.17245,1.02021 3.32744,1.333177 3.10084,0.721329 6.24804,1.218208 9.38047,1.777638 2.18468,0.390168 4.36754,0.790398 6.55196,1.181976 4.81094,0.902419 9.66428,1.645692 14.38052,2.985666 1.02756,0.29195 2.05201,0.599737 3.05652,0.963139 0.91877,0.332383 1.8052,0.748149 2.7078,1.122223 1.79658,0.93702 2.64451,1.26892 4.2192,2.49554 0.55876,0.43525 1.10365,0.89751 1.57548,1.42573 0.47541,0.53224 0.8865,1.12395 1.25036,1.73787 0.968,1.63327 1.04993,2.34725 1.591,4.17921 0.14224,0.84797 0.31939,1.69083 0.42673,2.54392 0.11385,0.90483 0.18249,1.81529 0.2363,2.72567 0.10475,1.7722 0.11457,3.62205 0.006,5.39414 -0.12907,2.11021 -0.34091,3.25214 -0.64656,5.35481 -0.45317,2.76007 -0.9433,5.5151 -1.53575,8.2491 -0.31292,1.44407 -0.70119,3.10937 -1.12095,4.53406 -0.20031,0.6799 -0.43727,1.34847 -0.65591,2.0227 -0.25731,0.62024 -0.47234,1.25977 -0.77193,1.86073 -1.11596,2.23848 -2.79955,4.27669 -4.98584,5.53676 -0.24718,0.14247 -0.53759,0.19126 -0.80639,0.2869 -0.6271,0.20656 -1.24334,0.44957 -1.88129,0.61968 -1.40142,0.37368 -2.97721,0.60665 -4.41345,0.7779 -1.59638,0.19035 -3.25517,0.31775 -4.86063,0.40382 -0.78273,0.042 -1.56644,0.0629 -2.34966,0.0944 -0.75893,0.005 -1.51786,0.0177 -2.2768,0.0145 -1.59035,-0.007 -2.70767,-0.0374 -4.29015,-0.12602 -2.0445,-0.11456 -4.08497,-0.31454 -6.12617,-0.47487 -0.71828,-0.0504 -1.43641,-0.10303 -2.15485,-0.15113 -0.72308,-0.0484 -1.44679,-0.0873 -2.16969,-0.13841 -1.56651,-0.1107 -3.12981,-0.26621 -4.69724,-0.36302 -1.79528,-0.11088 -3.4896,-0.15349 -5.28683,-0.21243 -5.13131,-0.10863 -10.26351,-0.14151 -15.39573,-0.16333 -3.09182,0.008 -6.18235,-0.0813 -9.27362,-0.12063 -2.31476,0.007 -4.62202,0.20346 -6.93236,0.31693 -2.01136,0.0828 -1.02332,0.0366 -2.96417,0.13752 -0.53259,0.10512 -1.06518,0.21024 -1.59778,0.31536 0,0 -0.0647,0.047 -0.0647,0.047 v 0 c 0.23738,0.10953 0.47476,0.21906 0.71214,0.32858 0.41392,0.0221 0.8273,0.0591 1.24175,0.0664 1.25289,0.022 1.82459,-0.0446 3.09509,-0.10297 1.7267,-0.0794 3.45516,-0.15016 5.18399,-0.14775 1.42572,0.0154 2.85113,0.0594 4.27682,0.0708 0.96792,0.008 2.24605,-0.006 3.20183,-0.0194 0.64721,-0.009 1.29437,-0.0225 1.94155,-0.0337 5.1707,-0.0887 10.34211,-0.0549 15.51206,0.0725 2.40456,0.0747 2.87351,0.0721 5.27365,0.2152 3.02901,0.18054 6.05257,0.45161 9.08327,0.60769 1.39965,0.11148 2.79805,0.23999 4.19892,0.33497 2.86791,0.19445 5.74607,0.25647 8.61944,0.1784 0.79116,-0.036 1.58298,-0.0595 2.37347,-0.108 1.27737,-0.0783 3.64685,-0.2804 4.91405,-0.43432 1.2768,-0.15508 3.17271,-0.44451 4.42831,-0.7674 0.63583,-0.16351 1.2508,-0.39949 1.87621,-0.59924 1.71975,-0.87424 2.61887,-1.17051 3.99491,-2.32836 1.4503,-1.22032 2.59137,-2.80858 3.41297,-4.50966 0.28985,-0.60011 0.49614,-1.23711 0.74421,-1.85567 0.20649,-0.67016 0.43179,-1.3348 0.61948,-2.01046 0.64756,-2.33111 1.08398,-4.715 1.52463,-7.0912 0.17452,-0.94109 0.34812,-1.88236 0.51816,-2.82427 0.16972,-0.94018 0.33408,-1.88132 0.50112,-2.82198 0.13966,-0.91405 0.30783,-1.8242 0.41898,-2.74216 0.18123,-1.49676 0.33228,-3.86389 0.33379,-5.36048 8e-4,-0.89138 -0.0465,-1.78245 -0.0976,-2.67236 -0.0526,-0.91594 -0.10972,-1.83251 -0.21359,-2.74406 -0.0982,-0.86201 -0.26151,-1.71536 -0.39226,-2.57304 -0.52951,-1.92414 -0.551,-2.52666 -1.56161,-4.22904 -0.36752,-0.61909 -0.78055,-1.21795 -1.26429,-1.75117 -0.48067,-0.52984 -1.03706,-0.99089 -1.61087,-1.41811 -1.52641,-1.13643 -2.62978,-1.57825 -4.34864,-2.428184 -0.9234,-0.362254 -1.83131,-0.766767 -2.77018,-1.086763 -1.02709,-0.350059 -2.07441,-0.63922 -3.12215,-0.921509 -4.73286,-1.275162 -9.57929,-2.042353 -14.38335,-2.98767 -1.12626,-0.217397 -2.25199,-0.437517 -3.37877,-0.652195 -4.07739,-0.776835 -8.17271,-1.496565 -12.19026,-2.551192 -1.0677,-0.304009 -2.37647,-0.61102 -3.28182,-1.301832 -0.73376,-0.55989 -1.12951,-1.38032 -1.40179,-2.233152 -0.0506,-0.250682 -0.12459,-0.497758 -0.15173,-0.752046 -0.0932,-0.873419 0.13154,-1.802998 0.54185,-2.573261 0.0691,-0.129744 0.16416,-0.243906 0.24624,-0.365858 0,0 -1.13348,0.461058 -1.13348,0.461058 z"
       style="stroke-width:0.264583" />
    <path
       id="path222852"
       d="m 187.58813,141.19383 c -0.17273,0.0654 -0.34794,0.12469 -0.5182,0.19631 -0.31148,0.13102 -1.42562,0.64901 -1.66575,0.76454 -1.27305,0.6125 -2.52473,1.26147 -3.76974,1.92863 -1.79886,1.03239 -3.62814,2.02159 -5.37195,3.14696 -0.54486,0.37867 -1.04399,0.81633 -1.521,1.27609 -0.35134,0.3549 -0.17497,0.16909 -0.50233,0.52923 -0.17204,0.18926 -0.47117,0.44991 -0.27796,0.74702 0.10971,0.1687 0.28156,0.2876 0.42234,0.4314 1.04591,0.80264 0.45638,0.38304 1.86461,1.27207 0.48192,0.30424 0.96297,0.6099 1.4465,0.9116 0.57856,0.36099 1.12445,0.78237 1.73972,1.07645 0.7096,0.33916 1.47648,0.54243 2.21472,0.81365 0,0 0.0672,-0.0434 0.0672,-0.0434 v 0 c -0.44747,-0.45808 -0.84814,-0.96709 -1.3424,-1.37423 -0.51831,-0.42697 -1.12159,-0.73884 -1.6784,-1.1142 -1.05929,-0.7141 -2.14407,-1.41814 -3.08967,-2.28258 -0.10604,-0.1291 -0.23624,-0.24169 -0.31813,-0.38731 -0.0329,-0.0585 -0.0315,-0.13656 -0.0127,-0.20105 0.037,-0.12738 0.2756,-0.35323 0.34652,-0.42675 0.26461,-0.27433 0.25837,-0.26431 0.53192,-0.53183 0.48086,-0.44303 0.97437,-0.87378 1.51392,-1.24507 1.13449,-0.76754 1.93881,-1.20903 2.99347,-1.8146 1.92738,-1.03692 3.88017,-2.04184 5.90151,-2.88409 0,0 1.02582,-0.78886 1.02582,-0.78886 z"
       style="stroke-width:0.264583" />
    <text
       xml:space="preserve"
       style="font-size:4.23333px;line-height:1.25;font-family:sans-serif;-inkscape-font-specification:'sans-serif, Normal';letter-spacing:0px;stroke-width:0.264583"
       x="196.83774"
       y="159.05482"
       id="text226002"><tspan
         sodipodi:role="line"
         id="tspan226000"
         style="stroke-width:0.264583"
         x="196.83774"
         y="159.05482">Backend call completion </tspan><tspan
         sodipodi:role="line"
         style="stroke-width:0.264583"
         x="196.83774"
         y="164.34648"
         id="tspan226004">events</tspan></text>
    <path
       id="path239270"
       d="m 196.94438,67.034377 c 0.11556,-0.121539 0.23998,-0.235222 0.34668,-0.364614 0.53855,-0.653137 1.0269,-1.346121 1.54439,-2.016069 2.0812,-2.6943 0.16898,-0.195318 2.6162,-3.310925 0.57543,-0.732578 1.14102,-1.472819 1.71153,-2.209226 1.92377,-2.612376 3.73205,-5.306351 5.54817,-7.993684 0,0 -0.0733,0.03202 -0.0733,0.03202 v 0 c -1.87708,2.777318 -3.74026,5.571667 -5.89952,8.143055 -1.15349,1.394436 -2.31938,2.778633 -3.46587,4.178829 -0.40144,0.490276 -0.79679,0.985544 -1.18928,1.483016 -0.51091,0.647581 -1.05731,1.399135 -1.60424,2.030764 -0.11095,0.12813 -0.2383,0.241081 -0.35745,0.361622 0,0 0.8227,-0.334788 0.8227,-0.334788 z"
       style="stroke-width:0.264583" />
    <path
       id="path239272"
       d="m 205.63356,61.695795 c -0.35016,0.546608 -0.24433,0.341281 -0.53171,0.967041 -0.0802,0.174557 -0.15757,0.35038 -0.23333,0.526889 -0.0602,0.140277 -0.1526,0.27232 -0.17455,0.423384 -0.0106,0.07257 0.0148,0.22952 0.0834,0.203557 0.53243,-0.201581 1.0041,-0.536911 1.50615,-0.805368 0.31796,-0.276413 0.65142,-0.535951 0.9539,-0.829236 0.81535,-0.79058 2.30489,-2.435365 3.00912,-3.229197 1.43378,-1.616215 2.21624,-2.535849 3.55971,-4.220192 0.55026,-0.689872 1.08345,-1.393182 1.62518,-2.089771 0,0 -0.0736,0.03134 -0.0736,0.03134 v 0 c -3.23295,3.762126 -0.52609,0.6614 -3.97274,4.466717 -1.95703,2.160693 -3.82764,4.442103 -6.12086,6.263965 0.14578,-0.05307 0.31136,-0.06866 0.43734,-0.159202 0.047,-0.03376 -0.14936,0.02122 -0.17042,-0.03264 -0.0414,-0.105923 -0.004,-0.230153 0.0246,-0.340328 0.11599,-0.45252 0.40845,-0.858766 0.43255,-1.337511 0,0 -0.35471,0.160549 -0.35471,0.160549 z"
       style="stroke-width:0.264583" />
    <path
       id="path239274"
       d="m 235.67042,43.916861 c -0.17373,0.181385 -0.36909,0.344282 -0.52118,0.544158 -0.32059,0.421318 -0.60662,0.868175 -0.89254,1.313747 -1.27026,1.979549 -1.60348,2.634316 -2.81046,4.863388 -2.02077,3.731998 -1.36039,2.446062 -3.03895,6.110213 0,0 0.0729,-0.03292 0.0729,-0.03292 v 0 c 0.57704,-1.033672 1.15612,-2.066208 1.73113,-3.101012 0.59571,-1.072062 1.17014,-2.156084 1.78103,-3.219574 1.27491,-2.219495 2.59076,-4.442119 4.26183,-6.392736 0.16399,-0.191418 0.35747,-0.355457 0.5362,-0.533185 0,0 -1.11997,0.447923 -1.11997,0.447923 z"
       style="stroke-width:0.264583" />
    <path
       id="path239276"
       d="m 241.19822,43.253006 c -0.1118,0.155922 -0.23176,0.306308 -0.3354,0.467767 -0.31915,0.497197 -1.07595,1.841027 -1.2872,2.20593 -0.40748,0.703873 -0.81249,1.409226 -1.22755,2.108657 -1.20655,2.033188 -1.88547,3.108405 -3.15353,5.158793 -1.80158,3.575545 -0.8125,1.821381 -2.97423,5.258536 0,0 0.0732,-0.03226 0.0732,-0.03226 v 0 c 2.30723,-3.668509 1.02734,-1.772132 3.88356,-5.659263 1.95731,-3.059909 1.48733,-2.305166 3.31253,-5.231556 0.44871,-0.719418 0.89483,-1.440444 1.34224,-2.160667 0.28418,-0.467402 0.56444,-0.937207 0.85253,-1.402209 0.14029,-0.226436 0.6064,-0.948174 0.81267,-1.268148 0,0 -1.29882,0.554421 -1.29882,0.554421 z"
       style="stroke-width:0.264583" />
    <path
       id="path239278"
       d="m 224.92194,51.322702 c -0.33352,1.435037 -0.54837,2.895463 -0.81747,4.343189 -0.20396,1.097309 -0.49444,2.488448 -0.72087,3.591562 0.0264,0.360744 -0.0548,0.746178 0.079,1.082228 0.29397,0.738378 1.1167,0.461386 1.63603,0.30643 0.49156,-0.146664 0.96212,-0.361276 1.42151,-0.589505 1.32495,-0.658236 2.08886,-1.209191 3.31253,-2.011524 0,0 -0.0745,0.02905 -0.0745,0.02905 v 0 c -0.39685,0.251897 -0.77926,0.528156 -1.19057,0.755687 -0.462,0.255577 -2.06486,0.968984 -2.55141,1.125291 -0.48083,0.154469 -1.17289,0.4327 -1.54535,-0.150664 -0.17705,-0.277288 -0.17734,-0.633627 -0.26601,-0.950441 0.0449,-0.531024 0.0483,-1.067218 0.13483,-1.593073 0.10674,-0.64888 0.28439,-1.284245 0.44349,-1.922314 0.37249,-1.493919 0.85917,-2.967434 1.11498,-4.488304 0,0 -0.97619,0.472392 -0.97619,0.472392 z"
       style="stroke-width:0.264583" />
    <path
       id="path239280"
       d="m 233.55203,52.044644 c -1.13726,1.478344 -2.01706,3.136347 -2.71703,4.861671 -0.19772,0.487368 -0.41529,0.971757 -0.53885,1.482985 -0.0934,0.386355 -0.0711,0.791773 -0.10663,1.187661 0.13323,0.247801 0.1629,0.591474 0.3997,0.7434 0.26723,0.171453 0.6299,0.158287 0.945,0.119354 0.41856,-0.05172 0.82131,-0.210437 1.2052,-0.385035 1.30686,-0.594355 1.70415,-1.047856 2.83502,-1.968466 0,0 -0.0742,0.02993 -0.0742,0.02993 v 0 c -0.23903,0.206489 -0.45325,0.44581 -0.7171,0.619461 -0.47164,0.310412 -1.59896,0.810072 -2.1482,0.915524 -0.293,0.05626 -0.62276,0.118655 -0.89504,-0.0033 -0.23781,-0.106519 -0.32238,-0.409469 -0.48357,-0.614204 -0.0342,-0.348411 -0.15713,-0.699399 -0.10274,-1.045239 0.0796,-0.505838 0.30218,-0.979927 0.49585,-1.453946 0.72969,-1.785935 1.73586,-3.468396 2.97599,-4.944909 0,0 -1.07341,0.455118 -1.07341,0.455118 z"
       style="stroke-width:0.264583" />
    <path
       id="path239282"
       d="m 201.27453,53.496146 c 1.26919,-1.029354 2.69429,-1.85189 4.09921,-2.678256 1.44967,-0.852685 1.31122,-1.338071 1.42307,-0.606403 0.14981,0.122552 0.3368,0.210256 0.44944,0.367654 0.32618,0.455785 0.52225,1.230895 0.68406,1.742104 0,0 0.0713,-0.03639 0.0713,-0.03639 v 0 c 0.0699,-0.31369 0.51222,-2.055199 0.38961,-2.433815 -0.076,-0.234688 -0.41628,-0.264816 -0.62442,-0.397224 -0.66332,0.312018 -1.33988,0.597294 -1.98995,0.936051 -0.43858,0.228549 -0.85001,0.505843 -1.27198,0.76378 -0.45438,0.277757 -0.90518,0.561343 -1.35699,0.843262 -0.83502,0.521028 -1.54944,0.951449 -2.34103,1.513234 -0.16409,0.116456 -0.31669,0.248317 -0.47503,0.372475 0,0 0.94276,-0.386474 0.94276,-0.386474 z"
       style="stroke-width:0.264583" />
    <path
       id="path239284"
       d="m 212.03842,55.907228 c 0.53218,-0.588844 1.05769,-1.195084 1.65156,-1.723967 0.45818,-0.408033 1.28193,-1.032404 1.80229,-1.366867 0.31245,-0.200824 0.64232,-0.373142 0.96349,-0.559715 -0.20014,0.173823 -0.50225,0.27523 -0.60043,0.521464 -0.0677,0.169821 0.15165,0.336241 0.18692,0.515628 0.35786,1.82032 -0.26496,0.159753 0.57184,2.011379 0,0 0.0713,-0.03625 0.0713,-0.03625 v 0 c 0.21744,-0.67307 0.71399,-1.907907 0.64956,-2.69962 -0.0205,-0.251135 -0.0646,-0.708888 -0.3156,-0.686858 -0.68345,0.05999 -1.24105,0.5853 -1.86158,0.877951 -0.48906,0.341677 -0.99336,0.68517 -1.4595,1.056124 -0.92701,0.737724 -1.73673,1.598639 -2.54633,2.459802 0,0 0.88646,-0.369067 0.88646,-0.369067 z"
       style="stroke-width:0.264583" />
    <path
       id="path239286"
       d="m 252.08307,17.218954 c -2.09276,0.05157 -4.18597,0.08074 -6.27539,0.224418 -0.80175,0.05513 -1.60199,0.130308 -2.40298,0.195462 -4.28425,0.314054 -8.52215,1.036698 -12.74546,1.79574 -3.31352,0.59553 -2.90553,0.528657 -6.11845,1.161359 -2.20413,0.488187 -2.92777,0.612909 -5.05563,1.216868 -1.57856,0.448053 -2.64546,0.780923 -4.12636,1.485714 -1.85705,0.883804 -2.973,1.765243 -4.78037,2.977038 -0.78192,0.698344 -1.72043,1.46907 -2.38708,2.3001 -0.46627,0.581245 -0.8635,1.09021 -0.63819,1.872501 0.24607,0.854353 0.85677,0.94346 1.5748,1.314207 0.5172,0.123613 1.02671,0.285557 1.55159,0.37084 1.23709,0.200999 3.26788,0.301284 4.4797,0.337823 0.88233,0.0266 1.76527,0.02716 2.64798,0.03312 1.62379,0.01095 3.64636,-0.0021 5.26722,-0.0088 4.44343,-0.03374 8.88629,0.0959 13.32968,0.06979 0.9085,-0.0053 1.81687,-0.02461 2.7253,-0.03691 0.93947,-0.02167 1.87894,-0.04313 2.8184,-0.06503 2.68359,-0.06255 3.33828,-0.09511 6.03583,-0.0932 3.12566,0.0021 6.24763,0.106066 9.37144,0.200245 3.27326,0.103846 6.54763,0.242461 9.82308,0.257553 1.47058,0.0068 5.47174,-0.04894 6.98092,-0.09157 1.11046,-0.03137 2.22018,-0.08489 3.33026,-0.127342 2.68822,-0.14719 3.35092,-0.147325 5.97448,-0.426995 0.80997,-0.08634 1.62097,-0.172453 2.42437,-0.306874 0.81373,-0.136144 2.57784,-0.497629 3.37902,-0.960927 0.82868,-0.47919 1.56602,-1.10131 2.34903,-1.651963 0.1257,-0.347015 0.32065,-0.676302 0.37706,-1.041038 0.12938,-0.836787 -0.13809,-1.534938 -0.52562,-2.261295 -0.48988,-0.918236 -1.13332,-1.671233 -1.87352,-2.39738 -0.38605,-0.378736 -0.81431,-0.711922 -1.22147,-1.067883 -0.47747,-0.299768 -0.93689,-0.630403 -1.43241,-0.899303 -1.11096,-0.602892 -2.08187,-0.944453 -3.29321,-1.308284 -2.04727,-0.614906 -4.15094,-0.983658 -6.24861,-1.374493 -4.03024,-0.646672 -8.10475,-1.000824 -12.18422,-1.115373 -0.76958,-0.02161 -1.5396,-0.02362 -2.3094,-0.03543 -2.52703,-0.0025 -5.05067,0.133611 -7.57405,0.25016 -0.49773,0.02299 -0.99638,0.03071 -1.49323,0.06818 -0.50914,0.0384 -1.01563,0.106242 -1.52344,0.159363 -0.63634,0.163821 -1.27268,0.327642 -1.90903,0.491463 0,0 -0.0646,0.0472 -0.0646,0.0472 v 0 c 0.22203,0.139838 0.44406,0.279676 0.66608,0.419513 0.4153,0.01533 0.83034,0.05091 1.24588,0.04598 0.44644,-0.0053 2.76854,-0.15856 3.15756,-0.182173 2.02404,-0.122858 4.04912,-0.240963 6.07718,-0.27111 0.78592,-0.0018 1.5719,-0.01507 2.35777,-0.0053 4.09323,0.05093 8.18467,0.374486 12.22245,1.057561 2.08047,0.388575 4.16232,0.769552 6.19111,1.385605 1.09059,0.331162 2.25047,0.744329 3.26107,1.282646 0.48991,0.260961 0.94245,0.586705 1.41367,0.880058 0.40608,0.348662 0.83468,0.672652 1.2182,1.045986 0.73996,0.720343 1.34548,1.436712 1.80784,2.363033 0.34378,0.688739 0.57103,1.38939 0.43048,2.166844 -0.0604,0.334103 -0.24794,0.632156 -0.3719,0.948233 0.89784,-0.02439 1.25807,-0.09813 -0.96144,0.602332 -1.44465,0.455916 -3.00895,0.67633 -4.50231,0.856757 -0.96126,0.116139 -1.92564,0.207111 -2.89079,0.284581 -1.04883,0.08419 -2.10018,0.133538 -3.15028,0.200308 -1.11326,0.04575 -2.22621,0.101219 -3.33984,0.137242 -2.40988,0.07795 -4.55731,0.111792 -6.97124,0.09081 -2.40795,-0.02093 -4.26078,-0.09875 -6.66016,-0.180806 -1.03954,-0.03555 -2.07908,-0.07126 -3.11862,-0.106886 -3.11854,-0.09924 -6.23894,-0.199533 -9.35935,-0.215156 -1.79356,-0.009 -4.20128,0.03214 -6.00013,0.06465 -0.93503,0.01691 -1.86998,0.03788 -2.80497,0.05682 -2.37203,0.0269 -2.9877,0.04262 -5.34103,0.03517 -3.57856,-0.01132 -7.157,-0.0977 -10.73569,-0.05062 -2.61706,0.0048 -5.23949,0.0541 -7.85519,-0.0574 -1.36828,-0.05833 -2.96129,-0.157488 -4.32227,-0.413507 -0.49568,-0.09324 -0.97597,-0.255055 -1.46396,-0.382582 -0.62349,-0.331263 -1.20001,-0.436443 -1.41673,-1.185296 -0.19879,-0.686864 0.17372,-1.19389 0.57593,-1.705962 0.68647,-0.873972 1.51743,-1.523532 2.34912,-2.253789 0.62135,-0.943332 0.26353,-0.541029 2.076,-1.419803 1.44919,-0.702636 2.57139,-1.054677 4.11934,-1.507022 2.18335,-0.638018 2.86972,-0.762579 5.13492,-1.28928 6.21269,-1.265774 12.4552,-2.505036 18.79324,-2.92733 0.88679,-0.05939 3.36067,-0.23071 4.33413,-0.275987 1.42752,-0.06639 2.85715,-0.0646 4.28507,-0.114941 0,0 1.29141,-0.93826 1.29141,-0.93826 z"
       style="stroke-width:0.264583" />
    <text
       xml:space="preserve"
       style="font-size:4.23333px;line-height:1.25;font-family:sans-serif;-inkscape-font-specification:'sans-serif, Normal';letter-spacing:0px;stroke-width:0.264583"
       x="228.33302"
       y="25.551029"
       id="text243184"><tspan
         sodipodi:role="line"
         id="tspan243182"
         style="stroke-width:0.264583"
         x="228.33302"
         y="25.551029">Application Server</tspan></text>
    <text
       xml:space="preserve"
       style="font-size:4.23333px;line-height:1.25;font-family:sans-serif;-inkscape-font-specification:'sans-serif, Normal';letter-spacing:0px;stroke-width:0.264583"
       x="240.39908"
       y="55.490604"
       id="text248292"><tspan
         sodipodi:role="line"
         id="tspan248290"
         style="stroke-width:0.264583"
         x="240.39908"
         y="55.490604">REST / JSONRPC calls</tspan></text>
  </g>
</svg>
